<?xml version="1.0" encoding="utf-8"?>
<!-- Generator: Adobe Illustrator 27.5.0, SVG Export Plug-In . SVG Version: 6.00 Build 0)  -->
<svg version="1.1" id="Capa_1" xmlns="http://www.w3.org/2000/svg" xmlns:xlink="http://www.w3.org/1999/xlink" x="0px" y="0px"
	 viewBox="0 0 324.3 254" style="enable-background:new 0 0 324.3 254;" xml:space="preserve">
<style type="text/css">
	.st0{enable-background:new    ;}
	.st1{fill:#F9F199;}
	.st2{fill:#FFFFFF;}
	.st3{fill:url(#SVGID_1_);}
</style>
<g class="st0">
	<path class="st1" d="M84.9,170.7v1c0,0.5-0.1,1-0.3,1.5c-0.2,0.5-0.5,0.9-0.8,1.2c-0.3,0.4-0.7,0.6-1.2,0.9s-1,0.3-1.5,0.3
		s-0.9-0.1-1.4-0.2s-0.9-0.3-1.3-0.7c-0.4-0.3-0.7-0.7-0.9-1.2c-0.2-0.5-0.4-1.1-0.4-1.9v-9.1c0-0.5,0.1-1,0.3-1.5
		c0.2-0.5,0.5-0.9,0.8-1.2s0.8-0.6,1.2-0.8s1-0.3,1.6-0.3c1.1,0,2,0.4,2.7,1.1c0.3,0.4,0.6,0.8,0.8,1.3s0.3,1,0.3,1.6v0.9h-2.4v-0.8
		c0-0.5-0.1-0.9-0.4-1.2s-0.6-0.5-1.1-0.5c-0.6,0-1,0.2-1.2,0.5s-0.3,0.8-0.3,1.4v8.5c0,0.5,0.1,0.9,0.3,1.2
		c0.2,0.3,0.6,0.5,1.1,0.5c0.2,0,0.3,0,0.5-0.1s0.3-0.1,0.5-0.3c0.1-0.1,0.3-0.3,0.4-0.5c0.1-0.2,0.1-0.5,0.1-0.8v-0.8L84.9,170.7
		L84.9,170.7z"/>
	<path class="st1" d="M86.8,175.5v-16.6h2.4v7.1h2.9v-7.1h2.4v16.6h-2.4v-7.4h-2.9v7.4H86.8z"/>
	<path class="st1" d="M96.8,175.5v-16.6h7.1v2.2h-4.7v4.9h4.1v2.2h-4.1v4.9h4.7v2.4L96.8,175.5L96.8,175.5z"/>
	<path class="st1" d="M113,170.7v1c0,0.5-0.1,1-0.3,1.5s-0.5,0.9-0.8,1.2c-0.3,0.4-0.7,0.6-1.2,0.9s-1,0.3-1.5,0.3s-0.9-0.1-1.4-0.2
		s-0.9-0.3-1.3-0.7c-0.4-0.3-0.7-0.7-0.9-1.2s-0.4-1.1-0.4-1.9v-9.1c0-0.5,0.1-1,0.3-1.5s0.5-0.9,0.8-1.2s0.8-0.6,1.2-0.8
		s1-0.3,1.6-0.3c1.1,0,2,0.4,2.7,1.1c0.3,0.4,0.6,0.8,0.8,1.3c0.2,0.5,0.3,1,0.3,1.6v0.9h-2.4v-0.8c0-0.5-0.1-0.9-0.4-1.2
		s-0.6-0.5-1.1-0.5c-0.6,0-1,0.2-1.2,0.5s-0.3,0.8-0.3,1.4v8.5c0,0.5,0.1,0.9,0.3,1.2s0.6,0.5,1.1,0.5c0.2,0,0.3,0,0.5-0.1
		s0.3-0.1,0.5-0.3c0.1-0.1,0.3-0.3,0.4-0.5c0.1-0.2,0.1-0.5,0.1-0.8v-0.8L113,170.7L113,170.7z"/>
	<path class="st1" d="M115,175.5v-16.6h2.4v7.6l0,0l3.5-7.6h2.4l-3.2,6.6l3.9,10h-2.5l-2.7-7.4l-1.3,2.4v5H115z"/>
	<path class="st1" d="M129.4,175.5v-16.6h2.4v16.6H129.4z"/>
	<path class="st1" d="M134,175.5v-16.6h2.3l3.6,10l0,0v-10h2.4v16.6h-2.2l-3.6-10l0,0v10H134z"/>
	<path class="st1" d="M144.3,170.2v-2.4h2.4v2.4H144.3z M144.3,175.5v-2.4h2.4v2.4H144.3z"/>
	<path class="st1" d="M155.6,175.5v-14.1l-2.4,1.7v-2.5l2.4-1.7h2.4v16.6H155.6z"/>
	<path class="st1" d="M161.5,163.2c0-0.5,0-0.8,0-1.2s0.1-0.6,0.2-0.8s0.2-0.4,0.3-0.6c0.1-0.2,0.2-0.4,0.4-0.6
		c0.3-0.4,0.7-0.7,1.2-0.9s1-0.3,1.5-0.3s1.1,0.1,1.5,0.3s0.9,0.5,1.2,0.9c0.2,0.2,0.3,0.4,0.4,0.6c0.1,0.2,0.2,0.4,0.3,0.6
		s0.1,0.5,0.2,0.8s0,0.7,0,1.2s0,0.9,0,1.3s-0.1,0.6-0.1,0.9s-0.2,0.5-0.4,0.7s-0.4,0.4-0.7,0.7c0.3,0.2,0.5,0.4,0.7,0.7
		s0.3,0.5,0.4,0.8s0.1,0.7,0.1,1.1c0,0.4,0,1,0,1.6c0,0.5,0,0.9,0,1.3s-0.1,0.6-0.1,0.9c0,0.2-0.1,0.5-0.2,0.6
		c-0.1,0.2-0.2,0.3-0.3,0.5c-0.3,0.4-0.6,0.8-1.1,1c-0.5,0.3-1.1,0.4-1.8,0.4s-1.3-0.1-1.8-0.4c-0.5-0.3-0.9-0.6-1.1-1
		c-0.1-0.2-0.2-0.4-0.3-0.5s-0.2-0.4-0.2-0.6c0-0.2-0.1-0.5-0.1-0.9s0-0.8,0-1.3c0-0.6,0-1.1,0-1.6c0-0.4,0.1-0.8,0.1-1.1
		s0.2-0.6,0.4-0.8s0.4-0.4,0.7-0.7c-0.3-0.2-0.5-0.5-0.7-0.7s-0.3-0.4-0.4-0.7s-0.1-0.6-0.1-0.9S161.5,163.7,161.5,163.2z
		 M166.2,162.3c0-0.3-0.1-0.6-0.4-0.8c-0.2-0.2-0.5-0.3-0.8-0.3s-0.6,0.1-0.8,0.3s-0.4,0.5-0.4,0.8v2.4c0,0.3,0.1,0.6,0.4,0.8
		c0.2,0.2,0.5,0.3,0.8,0.3s0.6-0.1,0.8-0.3s0.4-0.5,0.4-0.8V162.3z M166.2,168.8c0-0.3-0.1-0.6-0.4-0.8c-0.2-0.2-0.5-0.3-0.8-0.3
		s-0.6,0.1-0.8,0.3s-0.4,0.5-0.4,0.8v3.3c0,0.3,0.1,0.6,0.4,0.8c0.2,0.2,0.5,0.3,0.8,0.3s0.6-0.1,0.8-0.3s0.4-0.5,0.4-0.8V168.8z"/>
	<path class="st1" d="M170.4,170.2v-2.4h2.4v2.4H170.4z M170.4,175.5v-2.4h2.4v2.4H170.4z"/>
	<path class="st1" d="M177.4,165.9c0.7,0,1.2-0.1,1.5-0.3s0.4-0.6,0.4-1.2v-2.1c0-0.3-0.1-0.6-0.3-0.8s-0.5-0.3-0.9-0.3
		s-0.7,0.1-0.9,0.4c-0.2,0.3-0.3,0.5-0.3,0.8v1.4h-2.4v-1.4c0-0.5,0.1-0.9,0.3-1.4c0.2-0.4,0.4-0.8,0.8-1.1c0.3-0.3,0.7-0.6,1.1-0.7
		s0.9-0.3,1.4-0.3c0.7,0,1.2,0.1,1.6,0.4c0.4,0.3,0.8,0.5,1,0.8c0.2,0.2,0.3,0.4,0.4,0.6c0.1,0.2,0.2,0.4,0.3,0.7
		c0.1,0.5,0.2,1.3,0.2,2.3c0,0.6,0,1,0,1.4s-0.1,0.7-0.2,0.9c-0.1,0.2-0.3,0.5-0.5,0.6c-0.2,0.2-0.5,0.4-0.8,0.6
		c0.4,0.2,0.7,0.5,0.9,0.7s0.3,0.4,0.4,0.7c0.1,0.3,0.1,0.6,0.2,1s0,0.9,0,1.5c0,0.5,0,1,0,1.4s-0.1,0.7-0.1,0.9s-0.1,0.5-0.2,0.6
		s-0.2,0.3-0.3,0.5c-0.3,0.4-0.7,0.8-1.1,1.1c-0.5,0.3-1.1,0.4-1.8,0.4c-0.4,0-0.8-0.1-1.2-0.2s-0.8-0.3-1.1-0.6s-0.6-0.6-0.9-1.1
		c-0.2-0.5-0.3-1-0.3-1.7V171h2.4v1.2c0,0.4,0.1,0.7,0.3,0.9s0.5,0.4,0.9,0.4s0.6-0.1,0.9-0.4c0.2-0.2,0.3-0.6,0.3-1v-2.4
		c0-0.7-0.1-1.1-0.4-1.3c-0.1-0.1-0.3-0.2-0.6-0.2c-0.2,0-0.6,0-0.9,0L177.4,165.9L177.4,165.9z"/>
	<path class="st1" d="M183.2,162.3c0-0.6,0.1-1.1,0.3-1.5s0.5-0.8,0.8-1.1s0.7-0.5,1.1-0.7s0.9-0.2,1.3-0.2s0.9,0.1,1.3,0.2
		c0.4,0.2,0.8,0.4,1.1,0.7s0.6,0.7,0.8,1.1c0.2,0.4,0.3,0.9,0.3,1.5v9.7c0,0.6-0.1,1.1-0.3,1.5s-0.5,0.8-0.8,1.1s-0.7,0.5-1.1,0.7
		c-0.4,0.2-0.9,0.2-1.3,0.2s-0.9-0.1-1.3-0.2s-0.8-0.4-1.1-0.7s-0.6-0.7-0.8-1.1c-0.2-0.4-0.3-0.9-0.3-1.5V162.3z M185.6,172.1
		c0,0.3,0.1,0.6,0.3,0.9c0.2,0.2,0.5,0.3,0.8,0.3s0.6-0.1,0.8-0.3s0.3-0.5,0.3-0.9v-9.7c0-0.3-0.1-0.6-0.3-0.9
		c-0.2-0.2-0.5-0.3-0.8-0.3s-0.6,0.1-0.8,0.3s-0.3,0.5-0.3,0.9V172.1z"/>
	<path class="st1" d="M196.5,170.2v-2.4h7v2.4H196.5z"/>
	<path class="st1" d="M212.6,175.5v-14.1l-2.4,1.7v-2.5l2.4-1.7h2.4v16.6H212.6z"/>
	<path class="st1" d="M219.3,175.5l2.7-7l0,0c-0.1,0.1-0.2,0.1-0.4,0.2c-0.2,0-0.4,0.1-0.6,0.1c-0.4,0-0.8-0.1-1.2-0.3
		s-0.6-0.5-0.8-0.8c-0.1-0.2-0.2-0.3-0.3-0.5s-0.1-0.4-0.1-0.7s-0.1-0.6-0.1-1.1c0-0.4,0-1,0-1.6c0-0.5,0-1,0-1.3s0-0.6,0.1-0.9
		c0-0.2,0.1-0.4,0.2-0.6s0.2-0.3,0.3-0.5c0.3-0.5,0.7-0.9,1.3-1.2c0.5-0.3,1.1-0.4,1.8-0.4s1.2,0.1,1.8,0.4c0.5,0.3,0.9,0.7,1.2,1.2
		c0.1,0.2,0.2,0.4,0.3,0.5s0.1,0.4,0.2,0.6c0,0.2,0.1,0.5,0.1,0.9s0,0.8,0,1.3s0,0.9,0,1.3s0,0.6-0.1,0.9c0,0.2-0.1,0.5-0.2,0.7
		s-0.1,0.4-0.2,0.6l-3.1,8.3L219.3,175.5L219.3,175.5z M220.8,165.4c0,0.4,0.1,0.6,0.4,0.9c0.2,0.2,0.5,0.3,0.8,0.3s0.6-0.1,0.8-0.3
		s0.4-0.5,0.4-0.9v-3.1c0-0.4-0.1-0.6-0.4-0.9c-0.2-0.2-0.5-0.3-0.8-0.3s-0.6,0.1-0.8,0.3s-0.4,0.5-0.4,0.9V165.4z"/>
	<path class="st1" d="M227.3,170.2v-2.4h2.4v2.4H227.3z M227.3,175.5v-2.4h2.4v2.4H227.3z"/>
	<path class="st1" d="M231.5,162.3c0-0.6,0.1-1.1,0.3-1.5s0.5-0.8,0.8-1.1s0.7-0.5,1.1-0.7s0.9-0.2,1.3-0.2s0.9,0.1,1.3,0.2
		c0.4,0.2,0.8,0.4,1.1,0.7s0.6,0.7,0.8,1.1c0.2,0.4,0.3,0.9,0.3,1.5v9.7c0,0.6-0.1,1.1-0.3,1.5s-0.5,0.8-0.8,1.1s-0.7,0.5-1.1,0.7
		c-0.4,0.2-0.9,0.2-1.3,0.2s-0.9-0.1-1.3-0.2s-0.8-0.4-1.1-0.7s-0.6-0.7-0.8-1.1c-0.2-0.4-0.3-0.9-0.3-1.5V162.3z M233.9,172.1
		c0,0.3,0.1,0.6,0.3,0.9c0.2,0.2,0.5,0.3,0.8,0.3s0.6-0.1,0.8-0.3s0.3-0.5,0.3-0.9v-9.7c0-0.3-0.1-0.6-0.3-0.9
		c-0.2-0.2-0.5-0.3-0.8-0.3s-0.6,0.1-0.8,0.3s-0.3,0.5-0.3,0.9V172.1z"/>
	<path class="st1" d="M240.2,162.3c0-0.6,0.1-1.1,0.3-1.5s0.5-0.8,0.8-1.1s0.7-0.5,1.1-0.7s0.9-0.2,1.3-0.2s0.9,0.1,1.3,0.2
		c0.4,0.2,0.8,0.4,1.1,0.7s0.6,0.7,0.8,1.1c0.2,0.4,0.3,0.9,0.3,1.5v9.7c0,0.6-0.1,1.1-0.3,1.5s-0.5,0.8-0.8,1.1s-0.7,0.5-1.1,0.7
		c-0.4,0.2-0.9,0.2-1.3,0.2s-0.9-0.1-1.3-0.2s-0.8-0.4-1.1-0.7s-0.6-0.7-0.8-1.1c-0.2-0.4-0.3-0.9-0.3-1.5V162.3z M242.6,172.1
		c0,0.3,0.1,0.6,0.3,0.9c0.2,0.2,0.5,0.3,0.8,0.3s0.6-0.1,0.8-0.3s0.3-0.5,0.3-0.9v-9.7c0-0.3-0.1-0.6-0.3-0.9
		c-0.2-0.2-0.5-0.3-0.8-0.3s-0.6,0.1-0.8,0.3s-0.3,0.5-0.3,0.9V172.1z"/>
</g>
<g class="st0">
	<path class="st2" d="M16.8,130.9l-0.6-0.6h-1l-0.6,0.6v5.9l0.6,0.6h2.6l1.7,1.7v8.4l-1.7,1.7h-4.2l-1.7-1.7v-4.4h2.7v3.3l0.6,0.6
		h1.1l0.6-0.6v-6.2l-0.6-0.6h-2.6l-1.7-1.7v-8.2l1.7-1.7h4.1l1.7,1.7v4.4h-2.7V130.9z"/>
	<path class="st2" d="M21.8,128.1h6.5v2.3h-3.9v7h3.4v2.3h-3.4v7.2h3.9v2.3h-6.6v-21.1H21.8z"/>
	<path class="st2" d="M38.4,129.8v17.7l-1.7,1.7h-6.2v-21h6.2L38.4,129.8z M35.7,146.3V131l-0.6-0.6h-2v16.5h2L35.7,146.3z"/>
	<path class="st2" d="M40.8,128.1h6.5v2.3h-3.9v7h3.4v2.3h-3.4v7.2h3.9v2.3h-6.6L40.8,128.1L40.8,128.1z"/>
	<path class="st2" d="M49.5,141.1v-3.6h2.8v3.6H49.5z M49.5,149.1v-3.6h2.8v3.6H49.5z"/>
	<path class="st2" d="M59.9,149.1v-21h2.7v18.7h3.5v2.3H59.9z"/>
	<path class="st2" d="M70.5,143.7l-0.5,5.4h-2.7l2.5-21h3.8l2.6,21h-2.8l-0.5-5.4H70.5z M71.7,130.8l-1,10.6h2L71.7,130.8z"/>
	<path class="st2" d="M87.3,149.1l-2.1-16.5v16.5h-2.4v-21h3.8l2,16.9l2-16.9h3.9v21H92v-16.5l-2,16.5H87.3z"/>
	<path class="st2" d="M99.6,143.7l-0.5,5.4h-2.7l2.5-21h3.8l2.6,21h-2.8l-0.5-5.4H99.6z M100.8,130.8l-1,10.6h2L100.8,130.8z"/>
	<path class="st2" d="M107.1,128.1h2.9l3,14.5v-14.5h2.4v21h-2.9l-3-14.3v14.3h-2.4V128.1z"/>
	<path class="st2" d="M122.5,130.9l-0.6-0.6h-1l-0.6,0.6v5.9l0.6,0.6h2.6l1.7,1.7v8.4l-1.7,1.7h-4.2l-1.7-1.7v-4.4h2.7v3.3l0.6,0.6
		h1.1l0.6-0.6v-6.2l-0.6-0.6h-2.6l-1.7-1.7v-8.2l1.7-1.7h4.1l1.7,1.7v4.4h-2.7V130.9z"/>
	<path class="st2" d="M127.5,128.1h2.7v21h-2.7V128.1z"/>
	<path class="st2" d="M140.5,147.4l-1.7,1.7h-4.6l-1.7-1.7v-17.7l1.7-1.7h4.6l1.7,1.7V147.4z M136.8,126.6H135l2-3.9h3.1
		L136.8,126.6z M135.8,130.4l-0.6,0.6v15.3l0.6,0.6h1.5l0.6-0.6V131l-0.6-0.6H135.8z"/>
	<path class="st2" d="M142.9,128.1h2.9l3,14.5v-14.5h2.4v21h-2.9l-3-14.3v14.3h-2.4V128.1z"/>
	<path class="st2" d="M163.3,149.1l-2.1-16.5v16.5h-2.4v-21h3.8l2,16.9l2-16.9h3.9v21H168v-16.5l-2.1,16.5H163.3z"/>
	<path class="st2" d="M175.6,143.7l-0.5,5.4h-2.7l2.5-21h3.8l2.6,21h-2.8l-0.5-5.4H175.6z M176.8,130.8l-1,10.6h2L176.8,130.8z"/>
	<path class="st2" d="M183.1,128.1h6.1l1.7,1.7v8.7l-1.5,1.5l1.7,9.1h-2.6l-1.6-8.9h-1.1v8.9h-2.7L183.1,128.1L183.1,128.1z
		 M188.3,137.4v-6.6l-0.6-0.6h-1.9v7.7h1.9L188.3,137.4z"/>
	<path class="st2" d="M193.5,128.1h6.1l1.7,1.7v8.7l-1.5,1.5l1.7,9.1h-2.6l-1.6-8.9h-1.1v8.9h-2.7L193.5,128.1L193.5,128.1z
		 M198.6,137.4v-6.6l-0.6-0.6h-1.9v7.7h1.9L198.6,137.4z"/>
	<path class="st2" d="M203.8,128.1h2.7v21h-2.7V128.1z"/>
	<path class="st2" d="M216.8,147.4l-1.7,1.7h-4.6l-1.7-1.7v-17.7l1.7-1.7h4.6l1.7,1.7V147.4z M212.1,130.4l-0.6,0.6v15.3l0.6,0.6
		h1.5l0.6-0.6V131l-0.6-0.6H212.1z"/>
	<path class="st2" d="M223.7,130.3v18.8H221v-18.8h-2.5v-2.2h7.7v2.2H223.7z"/>
	<path class="st2" d="M232.5,130.3v18.8h-2.7v-18.8h-2.5v-2.2h7.7v2.2H232.5z"/>
	<path class="st2" d="M241.7,128.1h6.1l1.7,1.7v8.7L248,140l1.7,9.1h-2.6l-1.6-8.9h-1.1v8.9h-2.7L241.7,128.1L241.7,128.1z
		 M246.9,137.4v-6.6l-0.6-0.6h-1.9v7.7h1.9L246.9,137.4z"/>
	<path class="st2" d="M252.1,128.1h6.5v2.3h-3.9v7h3.4v2.3h-3.4v7.2h3.9v2.3H252v-21.1H252.1z"/>
	<path class="st2" d="M267.2,130.4h-3.8v7.2h3.4v2.3h-3.4v9.2h-2.7v-21h6.5V130.4z"/>
	<path class="st2" d="M277,147.4l-1.7,1.7h-4.6l-1.7-1.7v-17.7l1.7-1.7h4.6l1.7,1.7V147.4z M272.3,130.4l-0.6,0.6v15.3l0.6,0.6h1.5
		l0.6-0.6V131l-0.6-0.6H272.3z"/>
	<path class="st2" d="M279.5,128.1h6.1l1.7,1.7v8.7l-1.5,1.5l1.7,9.1h-2.6l-1.6-8.9h-1.1v8.9h-2.7V128.1z M284.6,137.4v-6.6
		l-0.6-0.6h-1.9v7.7h1.9L284.6,137.4z"/>
	<path class="st2" d="M294.3,149.1l-2.1-16.5v16.5h-2.4v-21h3.8l2,16.9l2-16.9h3.9v21H299v-16.5l-2.1,16.5H294.3z"/>
	<path class="st2" d="M306.5,143.7l-0.5,5.4h-2.7l2.5-21h3.8l2.6,21h-2.8l-0.5-5.4H306.5z M307.7,130.8l-1,10.6h2L307.7,130.8z"/>
</g>
<g>
	<g>
		
			<linearGradient id="SVGID_1_" gradientUnits="userSpaceOnUse" x1="52.1184" y1="154.9813" x2="279.2311" y2="53.997" gradientTransform="matrix(1 0 0 -1 0 182)">
			<stop  offset="0" style="stop-color:#C8A84F"/>
			<stop  offset="6.043150e-02" style="stop-color:#CEB25B"/>
			<stop  offset="0.2319" style="stop-color:#DFCB78"/>
			<stop  offset="0.3845" style="stop-color:#E8DB8B"/>
			<stop  offset="0.502" style="stop-color:#ECE192"/>
			<stop  offset="0.6209" style="stop-color:#E3D78B"/>
			<stop  offset="0.8015" style="stop-color:#CABE79"/>
			<stop  offset="1" style="stop-color:#A89B62"/>
		</linearGradient>
		<path class="st3" d="M64.2,72.5h-8l-6.8,26.2v4.9H59v12h5.2v-12H67V99h-2.8V72.5z M59,99h-5.2L59,78V99z M78.2,72.5v43.2h12.4
			l3.3-3.4V75.9l-3.3-3.4H78.2z M88.6,109.9l-1.1,1.1h-4V77.1h4l1.1,1.1V109.9z M105,24.6v33.9h5V15.3h-7.8l-3.9,34.9l-3.9-34.9
			h-7.6v43.2h4.8V24.6l4.1,33.9h5.2L105,24.6z M102.7,96.1h6.8v-4.7h-6.8V77.1h7.8v-4.7h-13v43.2h13.2V111h-7.9L102.7,96.1
			L102.7,96.1z M187.4,58.5l3.3-3.4V18.7l-3.3-3.4h-9.2l-3.3,3.4v36.4l3.3,3.4C178.2,58.5,187.4,58.5,187.4,58.5z M180.2,21.1
			l1.1-1.1h3l1.1,1.1v31.6l-1.1,1.1h-3l-1.1-1.1V21.1z M143.8,40.1h2.3l3.2,18.4h5.1l-3.3-18.8l2.9-3v-18l-3.3-3.4h-12.2v43.2h5.3
			V40.1z M143.8,19.9h3.9l1.1,1.1v13.5l-1.1,1.1h-3.9V19.9z M206.5,53.8h-7V15.3h-5.3v43.2h12.3V53.8z M38,77.1h3.7v38.5H47V72.5h-9
			V77.1z M136.1,4.2h-6.2l-3.9,8h3.6L136.1,4.2z M135.7,53.8h-7.9V39h6.8v-4.7h-6.8V20h7.8v-4.7h-13v43.2h13.2L135.7,53.8
			L135.7,53.8z M160.7,15.3l-3.3,3.4v36.4l3.3,3.4h8.1l3.3-3.4v-9.8h-5.3v7.4l-1.1,1.1h-2l-1.1-1.1V21l1.1-1.1h2l1.1,1.1v7.4h5.3
			v-9.7l-3.3-3.4C168.8,15.3,160.7,15.3,160.7,15.3z M238.9,37.7l-3.3-3.4h-5.2l-1.1-1.1V21l1.1-1.1h1.9l1.1,1.1v6.8h5.3v-9.1
			l-3.3-3.4h-8.1l-3.3,3.4v16.8l3.3,3.4h5.2l1.1,1.1v12.7l-1.1,1.1h-2.2l-1.1-1.1v-6.8H224v9l3.3,3.4h8.4l3.3-3.4V37.7H238.9z
			 M239.2,72.5l-3.3,3.4v36.4l3.3,3.4h8.6l3.3-3.4V75.9l-3.3-3.4H239.2z M245.9,109.9l-1.1,1.1h-2.5l-1.1-1.1V78.3l1.1-1.1h2.5
			l1.1,1.1V109.9z M113.6,58.5h5.3V15.3h-5.3V58.5z M257.5,72.5l-3.3,3.4v7.6h5.3v-5.2l1.1-1.1h1.7l1.1,1.1v12.4l-1.1,1.1h-4.8
			l-3.3,3.4v20.5h14.3V111h-9V97.7l1.1-1.1h4.8l3.3-3.4V75.9l-3.3-3.4H257.5z M286.3,75.9l-3.3-3.4h-8.7l-3.3,3.4v8.5h5.3v-6.2
			l1.1-1.1h2.5l1.1,1.1v12l-1.1,1.1h-4.7v4.8h4.7l1.1,1.1V110l-1.1,1.1h-2.5l-1.1-1.1v-6.2H271v8.5l3.3,3.4h8.6l3.3-3.4V97.2
			l-3.3-3.5l3.3-3.4V75.9H286.3z M222,53.8h-7.9V39h6.8v-4.7h-6.8V20h7.8v-4.7h-13v43.2H222V53.8z M222.1,72.5l-3.3,3.4v7.6h5.3
			v-5.2l1.1-1.1h1.7l1.1,1.1v12.4l-1.1,1.1h-4.8l-3.3,3.4v20.5h14.3V111h-9V97.7l1.1-1.1h4.8l3.3-3.4V75.9l-3.3-3.4H222.1z
			 M144.6,109.9l-1.1,1.1h-2.7l-1.1-1.1V72.5h-5.3v39.8l3.3,3.4h8.9l3.3-3.4V72.5h-5.3L144.6,109.9L144.6,109.9z M125.7,109.9
			l-1.1,1.1h-4.3v4.7h7.4l3.3-3.4V72.5h-5.3V109.9z M165.3,102.4l-6.1-29.9h-5.7v43.2h4.8V86.2l6.1,29.5h5.7V72.5h-4.8V102.4z
			 M185.7,72.5l-3.3,3.4v36.4l3.3,3.4h9.2l3.3-3.4V75.9l-3.3-3.4H185.7z M192.9,109.9l-1.1,1.1h-3l-1.1-1.1V78.3l1.1-1.1h3l1.1,1.1
			V109.9z M201.5,115.7h2.5l-2.5,6.4h1.8l3.7-6.9v-5.7h-5.5V115.7z M173.7,115.7h5.3V72.5h-5.3V115.7z"/>
	</g>
</g>
<g>
	<path class="st1" d="M74.5,201v-16.6h3.6c0.7,0,1.2,0.1,1.7,0.3c0.5,0.2,1,0.5,1.4,0.9c0.4,0.4,0.7,0.9,0.8,1.5
		c0.2,0.6,0.2,1.4,0.2,2.4c0,0.7,0,1.4-0.1,1.9c-0.1,0.5-0.3,1-0.5,1.4c-0.3,0.5-0.8,1-1.3,1.3c-0.5,0.3-1.3,0.5-2.2,0.5h-1.2v6.5
		H74.5z M76.9,186.6v5.6h1.1c0.5,0,0.9-0.1,1.1-0.2c0.3-0.1,0.5-0.3,0.6-0.6c0.1-0.2,0.2-0.5,0.2-0.9c0-0.3,0-0.7,0-1.1
		c0-0.4,0-0.8,0-1.1s-0.1-0.7-0.2-0.9c-0.1-0.3-0.3-0.5-0.6-0.6c-0.2-0.1-0.6-0.2-1.1-0.2H76.9z"/>
	<path class="st1" d="M83.9,188.3c0-0.7,0.1-1.3,0.4-1.8c0.2-0.5,0.5-0.9,0.9-1.3c0.4-0.3,0.8-0.6,1.3-0.7c0.5-0.2,1-0.3,1.4-0.3
		c0.5,0,1,0.1,1.4,0.3s0.9,0.4,1.3,0.7c0.4,0.3,0.7,0.8,0.9,1.3c0.2,0.5,0.4,1.1,0.4,1.8v8.8c0,0.7-0.1,1.3-0.4,1.8
		s-0.5,0.9-0.9,1.2c-0.4,0.3-0.8,0.6-1.3,0.8s-1,0.3-1.4,0.3c-0.5,0-1-0.1-1.4-0.3c-0.5-0.2-0.9-0.4-1.3-0.8
		c-0.4-0.3-0.7-0.7-0.9-1.2c-0.2-0.5-0.4-1.1-0.4-1.8V188.3z M86.3,197c0,0.6,0.2,1,0.5,1.3c0.3,0.3,0.7,0.4,1.1,0.4
		s0.8-0.1,1.1-0.4c0.3-0.3,0.5-0.7,0.5-1.3v-8.8c0-0.6-0.2-1-0.5-1.3c-0.3-0.3-0.7-0.4-1.1-0.4s-0.8,0.1-1.1,0.4
		c-0.3,0.3-0.5,0.7-0.5,1.3V197z"/>
	<path class="st1" d="M93.9,201v-16.6h2.3l3.6,10h0v-10h2.4V201H100l-3.6-10h0v10H93.9z"/>
	<path class="st1" d="M104.4,201v-16.6h7.1v2.2h-4.7v4.9h4.1v2.2h-4.1v4.9h4.7v2.4H104.4z"/>
	<path class="st1" d="M113,201v-16.6h2.3l3.6,10h0v-10h2.4V201H119l-3.6-10h0v10H113z"/>
	<path class="st1" d="M131,196.2v1c0,0.5-0.1,1-0.3,1.5c-0.2,0.5-0.5,0.9-0.8,1.2c-0.3,0.4-0.7,0.6-1.2,0.9c-0.5,0.2-1,0.3-1.5,0.3
		c-0.5,0-0.9-0.1-1.4-0.2s-0.9-0.3-1.3-0.7c-0.4-0.3-0.7-0.7-0.9-1.2c-0.2-0.5-0.4-1.1-0.4-1.9V188c0-0.5,0.1-1,0.3-1.5
		s0.5-0.9,0.8-1.2c0.3-0.3,0.8-0.6,1.2-0.8s1-0.3,1.6-0.3c1.1,0,2,0.4,2.7,1.1c0.3,0.4,0.6,0.8,0.8,1.3c0.2,0.5,0.3,1,0.3,1.6v0.9
		h-2.4v-0.8c0-0.5-0.1-0.9-0.4-1.2c-0.3-0.3-0.6-0.5-1.1-0.5c-0.6,0-1,0.2-1.2,0.5c-0.2,0.4-0.3,0.8-0.3,1.4v8.5
		c0,0.5,0.1,0.9,0.3,1.2c0.2,0.3,0.6,0.5,1.1,0.5c0.2,0,0.3,0,0.5-0.1c0.2-0.1,0.3-0.1,0.5-0.3c0.1-0.1,0.3-0.3,0.4-0.5
		c0.1-0.2,0.1-0.5,0.1-0.8v-0.8H131z"/>
	<path class="st1" d="M133,201v-16.6h2.4V201H133z"/>
	<path class="st1" d="M136.6,201l3.7-16.6h2l3.7,16.6h-2.4l-0.7-3.6h-3.2L139,201H136.6z M142.5,195.2l-1.2-6h0l-1.2,6H142.5z"/>
	<path class="st1" d="M147.1,195.7v-2.4h2.4v2.4H147.1z M147.1,201v-2.4h2.4v2.4H147.1z"/>
	<path class="st1" d="M158.4,201v-14.1l-2.4,1.7v-2.5l2.4-1.7h2.4V201H158.4z"/>
	<path class="st1" d="M165.2,201l2.7-7l0,0c-0.1,0.1-0.2,0.1-0.4,0.2c-0.2,0-0.4,0.1-0.6,0.1c-0.4,0-0.8-0.1-1.2-0.3
		c-0.4-0.2-0.6-0.5-0.8-0.8c-0.1-0.2-0.2-0.3-0.3-0.5c-0.1-0.2-0.1-0.4-0.1-0.7c0-0.3-0.1-0.6-0.1-1.1c0-0.4,0-1,0-1.6
		c0-0.5,0-1,0-1.3c0-0.4,0-0.6,0.1-0.9c0-0.2,0.1-0.4,0.2-0.6s0.2-0.4,0.3-0.5c0.3-0.5,0.7-0.9,1.3-1.2s1.1-0.4,1.8-0.4
		c0.7,0,1.2,0.1,1.8,0.4c0.5,0.3,0.9,0.7,1.2,1.2c0.1,0.2,0.2,0.4,0.3,0.5s0.1,0.4,0.2,0.6c0,0.2,0.1,0.5,0.1,0.9c0,0.3,0,0.8,0,1.3
		c0,0.5,0,0.9,0,1.3c0,0.3,0,0.6-0.1,0.9c0,0.2-0.1,0.5-0.2,0.7c-0.1,0.2-0.1,0.4-0.2,0.6l-3.1,8.3H165.2z M166.7,190.9
		c0,0.4,0.1,0.6,0.4,0.9c0.2,0.2,0.5,0.3,0.8,0.3c0.3,0,0.6-0.1,0.8-0.3c0.2-0.2,0.4-0.5,0.4-0.9v-3.1c0-0.4-0.1-0.6-0.4-0.9
		c-0.2-0.2-0.5-0.3-0.8-0.3c-0.3,0-0.6,0.1-0.8,0.3c-0.2,0.2-0.4,0.5-0.4,0.9V190.9z"/>
	<path class="st1" d="M173.2,195.7v-2.4h2.4v2.4H173.2z M173.2,201v-2.4h2.4v2.4H173.2z"/>
	<path class="st1" d="M177.3,187.8c0-0.6,0.1-1.1,0.3-1.5c0.2-0.4,0.5-0.8,0.8-1.1c0.3-0.3,0.7-0.5,1.1-0.7c0.4-0.2,0.9-0.2,1.3-0.2
		s0.9,0.1,1.3,0.2s0.8,0.4,1.1,0.7c0.3,0.3,0.6,0.7,0.8,1.1c0.2,0.4,0.3,0.9,0.3,1.5v9.7c0,0.6-0.1,1.1-0.3,1.5
		c-0.2,0.4-0.5,0.8-0.8,1.1c-0.3,0.3-0.7,0.5-1.1,0.7s-0.9,0.2-1.3,0.2s-0.9-0.1-1.3-0.2c-0.4-0.2-0.8-0.4-1.1-0.7s-0.6-0.7-0.8-1.1
		s-0.3-0.9-0.3-1.5V187.8z M179.7,197.5c0,0.3,0.1,0.6,0.3,0.9c0.2,0.2,0.5,0.3,0.8,0.3s0.6-0.1,0.8-0.3c0.2-0.2,0.3-0.5,0.3-0.9
		v-9.7c0-0.3-0.1-0.6-0.3-0.9c-0.2-0.2-0.5-0.3-0.8-0.3s-0.6,0.1-0.8,0.3c-0.2,0.2-0.3,0.5-0.3,0.9V197.5z"/>
	<path class="st1" d="M186,187.8c0-0.6,0.1-1.1,0.3-1.5c0.2-0.4,0.5-0.8,0.8-1.1c0.3-0.3,0.7-0.5,1.1-0.7c0.4-0.2,0.9-0.2,1.3-0.2
		s0.9,0.1,1.3,0.2s0.8,0.4,1.1,0.7c0.3,0.3,0.6,0.7,0.8,1.1c0.2,0.4,0.3,0.9,0.3,1.5v9.7c0,0.6-0.1,1.1-0.3,1.5
		c-0.2,0.4-0.5,0.8-0.8,1.1c-0.3,0.3-0.7,0.5-1.1,0.7s-0.9,0.2-1.3,0.2s-0.9-0.1-1.3-0.2c-0.4-0.2-0.8-0.4-1.1-0.7s-0.6-0.7-0.8-1.1
		s-0.3-0.9-0.3-1.5V187.8z M188.4,197.5c0,0.3,0.1,0.6,0.3,0.9c0.2,0.2,0.5,0.3,0.8,0.3s0.6-0.1,0.8-0.3c0.2-0.2,0.3-0.5,0.3-0.9
		v-9.7c0-0.3-0.1-0.6-0.3-0.9c-0.2-0.2-0.5-0.3-0.8-0.3s-0.6,0.1-0.8,0.3c-0.2,0.2-0.3,0.5-0.3,0.9V197.5z"/>
	<path class="st1" d="M199.3,195.7v-2.4h7v2.4H199.3z"/>
	<path class="st1" d="M212.5,201v-2.2l4.3-8.1c0.2-0.4,0.3-0.8,0.4-1.1s0-0.7,0-1.1c0-0.2,0-0.4,0-0.6s-0.1-0.4-0.1-0.6
		c-0.1-0.2-0.2-0.3-0.4-0.4c-0.2-0.1-0.4-0.2-0.7-0.2c-0.4,0-0.6,0.1-0.9,0.3c-0.2,0.2-0.3,0.5-0.3,0.9v1.4h-2.4v-1.3
		c0-0.5,0.1-1,0.3-1.4c0.2-0.4,0.4-0.8,0.8-1.1c0.3-0.3,0.7-0.6,1.1-0.8s0.9-0.3,1.4-0.3c0.6,0,1.2,0.1,1.6,0.3
		c0.4,0.2,0.8,0.5,1.1,0.9c0.3,0.4,0.5,0.8,0.6,1.3c0.1,0.5,0.2,1,0.2,1.6c0,0.4,0,0.7,0,1c0,0.3,0,0.5-0.1,0.8
		c0,0.2-0.1,0.5-0.2,0.7c-0.1,0.2-0.3,0.6-0.4,0.9l-3.5,6.7h4.3v2.4H212.5z"/>
	<path class="st1" d="M221.2,187.8c0-0.6,0.1-1.1,0.3-1.5c0.2-0.4,0.5-0.8,0.8-1.1c0.3-0.3,0.7-0.5,1.1-0.7s0.9-0.2,1.3-0.2
		s0.9,0.1,1.3,0.2c0.4,0.2,0.8,0.4,1.1,0.7c0.3,0.3,0.6,0.7,0.8,1.1c0.2,0.4,0.3,0.9,0.3,1.5v9.7c0,0.6-0.1,1.1-0.3,1.5
		c-0.2,0.4-0.5,0.8-0.8,1.1s-0.7,0.5-1.1,0.7c-0.4,0.2-0.9,0.2-1.3,0.2s-0.9-0.1-1.3-0.2s-0.8-0.4-1.1-0.7s-0.6-0.7-0.8-1.1
		c-0.2-0.4-0.3-0.9-0.3-1.5V187.8z M223.6,197.5c0,0.3,0.1,0.6,0.3,0.9c0.2,0.2,0.5,0.3,0.8,0.3s0.6-0.1,0.8-0.3
		c0.2-0.2,0.3-0.5,0.3-0.9v-9.7c0-0.3-0.1-0.6-0.3-0.9c-0.2-0.2-0.5-0.3-0.8-0.3s-0.6,0.1-0.8,0.3c-0.2,0.2-0.3,0.5-0.3,0.9V197.5z"
		/>
	<path class="st1" d="M230.1,195.7v-2.4h2.4v2.4H230.1z M230.1,201v-2.4h2.4v2.4H230.1z"/>
	<path class="st1" d="M234.3,187.8c0-0.6,0.1-1.1,0.3-1.5c0.2-0.4,0.5-0.8,0.8-1.1c0.3-0.3,0.7-0.5,1.1-0.7c0.4-0.2,0.9-0.2,1.3-0.2
		s0.9,0.1,1.3,0.2s0.8,0.4,1.1,0.7c0.3,0.3,0.6,0.7,0.8,1.1c0.2,0.4,0.3,0.9,0.3,1.5v9.7c0,0.6-0.1,1.1-0.3,1.5
		c-0.2,0.4-0.5,0.8-0.8,1.1c-0.3,0.3-0.7,0.5-1.1,0.7s-0.9,0.2-1.3,0.2s-0.9-0.1-1.3-0.2c-0.4-0.2-0.8-0.4-1.1-0.7s-0.6-0.7-0.8-1.1
		s-0.3-0.9-0.3-1.5V187.8z M236.7,197.5c0,0.3,0.1,0.6,0.3,0.9c0.2,0.2,0.5,0.3,0.8,0.3s0.6-0.1,0.8-0.3c0.2-0.2,0.3-0.5,0.3-0.9
		v-9.7c0-0.3-0.1-0.6-0.3-0.9c-0.2-0.2-0.5-0.3-0.8-0.3s-0.6,0.1-0.8,0.3c-0.2,0.2-0.3,0.5-0.3,0.9V197.5z"/>
	<path class="st1" d="M243,187.8c0-0.6,0.1-1.1,0.3-1.5c0.2-0.4,0.5-0.8,0.8-1.1c0.3-0.3,0.7-0.5,1.1-0.7c0.4-0.2,0.9-0.2,1.3-0.2
		s0.9,0.1,1.3,0.2s0.8,0.4,1.1,0.7c0.3,0.3,0.6,0.7,0.8,1.1c0.2,0.4,0.3,0.9,0.3,1.5v9.7c0,0.6-0.1,1.1-0.3,1.5
		c-0.2,0.4-0.5,0.8-0.8,1.1c-0.3,0.3-0.7,0.5-1.1,0.7s-0.9,0.2-1.3,0.2s-0.9-0.1-1.3-0.2c-0.4-0.2-0.8-0.4-1.1-0.7s-0.6-0.7-0.8-1.1
		s-0.3-0.9-0.3-1.5V187.8z M245.4,197.5c0,0.3,0.1,0.6,0.3,0.9c0.2,0.2,0.5,0.3,0.8,0.3s0.6-0.1,0.8-0.3c0.2-0.2,0.3-0.5,0.3-0.9
		v-9.7c0-0.3-0.1-0.6-0.3-0.9c-0.2-0.2-0.5-0.3-0.8-0.3s-0.6,0.1-0.8,0.3c-0.2,0.2-0.3,0.5-0.3,0.9V197.5z"/>
</g>
<g>
	<path class="st1" d="M91.4,222.2v1c0,0.5-0.1,1-0.3,1.5c-0.2,0.5-0.5,0.9-0.8,1.2c-0.3,0.4-0.7,0.6-1.2,0.9c-0.5,0.2-1,0.3-1.5,0.3
		c-0.5,0-0.9-0.1-1.4-0.2s-0.9-0.3-1.3-0.7c-0.4-0.3-0.7-0.7-0.9-1.2c-0.2-0.5-0.4-1.1-0.4-1.9V214c0-0.5,0.1-1,0.3-1.5
		s0.5-0.9,0.8-1.2c0.3-0.3,0.8-0.6,1.2-0.8s1-0.3,1.6-0.3c1.1,0,2,0.4,2.7,1.1c0.3,0.4,0.6,0.8,0.8,1.3c0.2,0.5,0.3,1,0.3,1.6v0.9
		H89v-0.8c0-0.5-0.1-0.9-0.4-1.2c-0.3-0.3-0.6-0.5-1.1-0.5c-0.6,0-1,0.2-1.2,0.5c-0.2,0.4-0.3,0.8-0.3,1.4v8.5
		c0,0.5,0.1,0.9,0.3,1.2c0.2,0.3,0.6,0.5,1.1,0.5c0.2,0,0.3,0,0.5-0.1c0.2-0.1,0.3-0.1,0.5-0.3c0.1-0.1,0.3-0.3,0.4-0.5
		c0.1-0.2,0.1-0.5,0.1-0.8v-0.8H91.4z"/>
	<path class="st1" d="M93.2,214.3c0-0.7,0.1-1.3,0.4-1.8c0.2-0.5,0.5-0.9,0.9-1.3c0.4-0.3,0.8-0.6,1.3-0.7c0.5-0.2,1-0.3,1.4-0.3
		c0.5,0,1,0.1,1.4,0.3s0.9,0.4,1.3,0.7c0.4,0.3,0.7,0.8,0.9,1.3c0.2,0.5,0.4,1.1,0.4,1.8v8.8c0,0.7-0.1,1.3-0.4,1.8
		s-0.5,0.9-0.9,1.2c-0.4,0.3-0.8,0.6-1.3,0.8s-1,0.3-1.4,0.3c-0.5,0-1-0.1-1.4-0.3c-0.5-0.2-0.9-0.4-1.3-0.8
		c-0.4-0.3-0.7-0.7-0.9-1.2c-0.2-0.5-0.4-1.1-0.4-1.8V214.3z M95.6,223c0,0.6,0.2,1,0.5,1.3c0.3,0.3,0.7,0.4,1.1,0.4
		s0.8-0.1,1.1-0.4c0.3-0.3,0.5-0.7,0.5-1.3v-8.8c0-0.6-0.2-1-0.5-1.3c-0.3-0.3-0.7-0.4-1.1-0.4s-0.8,0.1-1.1,0.4
		c-0.3,0.3-0.5,0.7-0.5,1.3V223z M95.7,209.6l2.1-3.3h2.5l-3.1,3.3H95.7z"/>
	<path class="st1" d="M110.9,222.2v1c0,0.5-0.1,1-0.3,1.5c-0.2,0.5-0.5,0.9-0.8,1.2c-0.3,0.4-0.7,0.6-1.2,0.9
		c-0.5,0.2-1,0.3-1.5,0.3c-0.5,0-0.9-0.1-1.4-0.2s-0.9-0.3-1.3-0.7c-0.4-0.3-0.7-0.7-0.9-1.2c-0.2-0.5-0.4-1.1-0.4-1.9V214
		c0-0.5,0.1-1,0.3-1.5s0.5-0.9,0.8-1.2c0.3-0.3,0.8-0.6,1.2-0.8s1-0.3,1.6-0.3c1.1,0,2,0.4,2.7,1.1c0.3,0.4,0.6,0.8,0.8,1.3
		c0.2,0.5,0.3,1,0.3,1.6v0.9h-2.4v-0.8c0-0.5-0.1-0.9-0.4-1.2c-0.3-0.3-0.6-0.5-1.1-0.5c-0.6,0-1,0.2-1.2,0.5
		c-0.2,0.4-0.3,0.8-0.3,1.4v8.5c0,0.5,0.1,0.9,0.3,1.2c0.2,0.3,0.6,0.5,1.1,0.5c0.2,0,0.3,0,0.5-0.1c0.2-0.1,0.3-0.1,0.5-0.3
		c0.1-0.1,0.3-0.3,0.4-0.5c0.1-0.2,0.1-0.5,0.1-0.8v-0.8H110.9z"/>
	<path class="st1" d="M114.4,226.9v-14.4h-2.8v-2.2h7.9v2.2h-2.8v14.4H114.4z"/>
	<path class="st1" d="M120.6,226.9v-16.6h7.1v2.2H123v4.9h4.1v2.2H123v4.9h4.7v2.4H120.6z"/>
	<path class="st1" d="M129.3,226.9v-16.6h2.4v14.2h4.7v2.4H129.3z"/>
	<path class="st1" d="M137.8,221.6v-2.4h2.4v2.4H137.8z M137.8,226.9v-2.4h2.4v2.4H137.8z"/>
	<path class="st1" d="M146.3,226.9v-2.2l4.3-8.1c0.2-0.4,0.3-0.8,0.4-1.1c0-0.3,0-0.7,0-1.1c0-0.2,0-0.4,0-0.6
		c0-0.2-0.1-0.4-0.1-0.6c-0.1-0.2-0.2-0.3-0.4-0.4c-0.2-0.1-0.4-0.2-0.7-0.2c-0.4,0-0.6,0.1-0.9,0.3c-0.2,0.2-0.3,0.5-0.3,0.9v1.4
		h-2.4v-1.3c0-0.5,0.1-1,0.3-1.4c0.2-0.4,0.4-0.8,0.8-1.1c0.3-0.3,0.7-0.6,1.1-0.8c0.4-0.2,0.9-0.3,1.4-0.3c0.6,0,1.2,0.1,1.6,0.3
		c0.4,0.2,0.8,0.5,1.1,0.9c0.3,0.4,0.5,0.8,0.6,1.3c0.1,0.5,0.2,1,0.2,1.6c0,0.4,0,0.7,0,1c0,0.3,0,0.5-0.1,0.8
		c0,0.2-0.1,0.5-0.2,0.7c-0.1,0.2-0.3,0.6-0.4,0.9l-3.5,6.7h4.3v2.4H146.3z"/>
	<path class="st1" d="M155,213.8c0-0.6,0.1-1.1,0.3-1.5c0.2-0.4,0.5-0.8,0.8-1.1c0.3-0.3,0.7-0.5,1.1-0.7c0.4-0.2,0.9-0.2,1.3-0.2
		s0.9,0.1,1.3,0.2c0.4,0.2,0.8,0.4,1.1,0.7c0.3,0.3,0.6,0.7,0.8,1.1c0.2,0.4,0.3,0.9,0.3,1.5v9.7c0,0.6-0.1,1.1-0.3,1.5
		c-0.2,0.4-0.5,0.8-0.8,1.1c-0.3,0.3-0.7,0.5-1.1,0.7c-0.4,0.2-0.9,0.2-1.3,0.2s-0.9-0.1-1.3-0.2c-0.4-0.2-0.8-0.4-1.1-0.7
		s-0.6-0.7-0.8-1.1c-0.2-0.4-0.3-0.9-0.3-1.5V213.8z M157.4,223.5c0,0.3,0.1,0.6,0.3,0.9c0.2,0.2,0.5,0.3,0.8,0.3s0.6-0.1,0.8-0.3
		c0.2-0.2,0.3-0.5,0.3-0.9v-9.7c0-0.3-0.1-0.6-0.3-0.9c-0.2-0.2-0.5-0.3-0.8-0.3s-0.6,0.1-0.8,0.3c-0.2,0.2-0.3,0.5-0.3,0.9V223.5z"
		/>
	<path class="st1" d="M163.9,221.6v-2.4h2.4v2.4H163.9z M163.9,226.9v-2.4h2.4v2.4H163.9z"/>
	<path class="st1" d="M168,213.8c0-0.6,0.1-1.1,0.3-1.5c0.2-0.4,0.5-0.8,0.8-1.1c0.3-0.3,0.7-0.5,1.1-0.7c0.4-0.2,0.9-0.2,1.3-0.2
		s0.9,0.1,1.3,0.2s0.8,0.4,1.1,0.7c0.3,0.3,0.6,0.7,0.8,1.1c0.2,0.4,0.3,0.9,0.3,1.5v9.7c0,0.6-0.1,1.1-0.3,1.5
		c-0.2,0.4-0.5,0.8-0.8,1.1c-0.3,0.3-0.7,0.5-1.1,0.7s-0.9,0.2-1.3,0.2s-0.9-0.1-1.3-0.2c-0.4-0.2-0.8-0.4-1.1-0.7s-0.6-0.7-0.8-1.1
		s-0.3-0.9-0.3-1.5V213.8z M170.4,223.5c0,0.3,0.1,0.6,0.3,0.9c0.2,0.2,0.5,0.3,0.8,0.3s0.6-0.1,0.8-0.3c0.2-0.2,0.3-0.5,0.3-0.9
		v-9.7c0-0.3-0.1-0.6-0.3-0.9c-0.2-0.2-0.5-0.3-0.8-0.3s-0.6,0.1-0.8,0.3c-0.2,0.2-0.3,0.5-0.3,0.9V223.5z"/>
	<path class="st1" d="M176.7,213.8c0-0.6,0.1-1.1,0.3-1.5c0.2-0.4,0.5-0.8,0.8-1.1c0.3-0.3,0.7-0.5,1.1-0.7c0.4-0.2,0.9-0.2,1.3-0.2
		s0.9,0.1,1.3,0.2s0.8,0.4,1.1,0.7c0.3,0.3,0.6,0.7,0.8,1.1c0.2,0.4,0.3,0.9,0.3,1.5v9.7c0,0.6-0.1,1.1-0.3,1.5
		c-0.2,0.4-0.5,0.8-0.8,1.1c-0.3,0.3-0.7,0.5-1.1,0.7s-0.9,0.2-1.3,0.2s-0.9-0.1-1.3-0.2c-0.4-0.2-0.8-0.4-1.1-0.7s-0.6-0.7-0.8-1.1
		s-0.3-0.9-0.3-1.5V213.8z M179.1,223.5c0,0.3,0.1,0.6,0.3,0.9c0.2,0.2,0.5,0.3,0.8,0.3s0.6-0.1,0.8-0.3c0.2-0.2,0.3-0.5,0.3-0.9
		v-9.7c0-0.3-0.1-0.6-0.3-0.9c-0.2-0.2-0.5-0.3-0.8-0.3s-0.6,0.1-0.8,0.3c-0.2,0.2-0.3,0.5-0.3,0.9V223.5z"/>
	<path class="st1" d="M190,221.7v-2.4h7v2.4H190z"/>
	<path class="st1" d="M203.2,226.9v-2.2l4.3-8.1c0.2-0.4,0.3-0.8,0.4-1.1s0-0.7,0-1.1c0-0.2,0-0.4,0-0.6s-0.1-0.4-0.1-0.6
		c-0.1-0.2-0.2-0.3-0.4-0.4c-0.2-0.1-0.4-0.2-0.7-0.2c-0.4,0-0.6,0.1-0.9,0.3c-0.2,0.2-0.3,0.5-0.3,0.9v1.4h-2.4v-1.3
		c0-0.5,0.1-1,0.3-1.4c0.2-0.4,0.4-0.8,0.8-1.1c0.3-0.3,0.7-0.6,1.1-0.8s0.9-0.3,1.4-0.3c0.6,0,1.2,0.1,1.6,0.3
		c0.4,0.2,0.8,0.5,1.1,0.9c0.3,0.4,0.5,0.8,0.6,1.3c0.1,0.5,0.2,1,0.2,1.6c0,0.4,0,0.7,0,1c0,0.3,0,0.5-0.1,0.8
		c0,0.2-0.1,0.5-0.2,0.7c-0.1,0.2-0.3,0.6-0.4,0.9l-3.5,6.7h4.3v2.4H203.2z"/>
	<path class="st1" d="M214.7,217.3c0.7,0,1.2-0.1,1.5-0.3c0.3-0.2,0.4-0.6,0.4-1.2v-2.1c0-0.3-0.1-0.6-0.3-0.8
		c-0.2-0.2-0.5-0.3-0.9-0.3c-0.4,0-0.7,0.1-0.9,0.4c-0.2,0.3-0.3,0.5-0.3,0.8v1.4h-2.4v-1.4c0-0.5,0.1-0.9,0.3-1.4
		c0.2-0.4,0.4-0.8,0.8-1.1s0.7-0.6,1.1-0.7s0.9-0.3,1.4-0.3c0.7,0,1.2,0.1,1.6,0.4c0.4,0.3,0.8,0.5,1,0.8c0.2,0.2,0.3,0.4,0.4,0.6
		c0.1,0.2,0.2,0.4,0.3,0.7c0.1,0.5,0.2,1.3,0.2,2.3c0,0.6,0,1,0,1.4s-0.1,0.7-0.2,0.9c-0.1,0.2-0.3,0.5-0.5,0.6
		c-0.2,0.2-0.5,0.4-0.8,0.6c0.4,0.2,0.7,0.5,0.9,0.7c0.2,0.2,0.3,0.4,0.4,0.7c0.1,0.3,0.1,0.6,0.2,1s0,0.9,0,1.5c0,0.5,0,1,0,1.4
		s-0.1,0.7-0.1,0.9c0,0.2-0.1,0.5-0.2,0.6s-0.2,0.3-0.3,0.5c-0.3,0.4-0.7,0.8-1.1,1.1c-0.5,0.3-1.1,0.4-1.8,0.4
		c-0.4,0-0.8-0.1-1.2-0.2s-0.8-0.3-1.1-0.6s-0.6-0.6-0.9-1.1c-0.2-0.5-0.3-1-0.3-1.7v-1.4h2.4v1.2c0,0.4,0.1,0.7,0.3,0.9
		c0.2,0.2,0.5,0.4,0.9,0.4c0.4,0,0.6-0.1,0.9-0.4c0.2-0.2,0.3-0.6,0.3-1V221c0-0.7-0.1-1.1-0.4-1.3c-0.1-0.1-0.3-0.2-0.6-0.2
		c-0.2,0-0.6,0-0.9,0V217.3z"/>
	<path class="st1" d="M220.8,221.6v-2.4h2.4v2.4H220.8z M220.8,226.9v-2.4h2.4v2.4H220.8z"/>
	<path class="st1" d="M225,213.8c0-0.6,0.1-1.1,0.3-1.5c0.2-0.4,0.5-0.8,0.8-1.1c0.3-0.3,0.7-0.5,1.1-0.7c0.4-0.2,0.9-0.2,1.3-0.2
		s0.9,0.1,1.3,0.2s0.8,0.4,1.1,0.7c0.3,0.3,0.6,0.7,0.8,1.1c0.2,0.4,0.3,0.9,0.3,1.5v9.7c0,0.6-0.1,1.1-0.3,1.5
		c-0.2,0.4-0.5,0.8-0.8,1.1c-0.3,0.3-0.7,0.5-1.1,0.7s-0.9,0.2-1.3,0.2s-0.9-0.1-1.3-0.2c-0.4-0.2-0.8-0.4-1.1-0.7s-0.6-0.7-0.8-1.1
		s-0.3-0.9-0.3-1.5V213.8z M227.4,223.5c0,0.3,0.1,0.6,0.3,0.9c0.2,0.2,0.5,0.3,0.8,0.3s0.6-0.1,0.8-0.3c0.2-0.2,0.3-0.5,0.3-0.9
		v-9.7c0-0.3-0.1-0.6-0.3-0.9c-0.2-0.2-0.5-0.3-0.8-0.3s-0.6,0.1-0.8,0.3c-0.2,0.2-0.3,0.5-0.3,0.9V223.5z"/>
	<path class="st1" d="M233.7,213.8c0-0.6,0.1-1.1,0.3-1.5c0.2-0.4,0.5-0.8,0.8-1.1c0.3-0.3,0.7-0.5,1.1-0.7c0.4-0.2,0.9-0.2,1.3-0.2
		s0.9,0.1,1.3,0.2s0.8,0.4,1.1,0.7c0.3,0.3,0.6,0.7,0.8,1.1c0.2,0.4,0.3,0.9,0.3,1.5v9.7c0,0.6-0.1,1.1-0.3,1.5
		c-0.2,0.4-0.5,0.8-0.8,1.1c-0.3,0.3-0.7,0.5-1.1,0.7s-0.9,0.2-1.3,0.2s-0.9-0.1-1.3-0.2c-0.4-0.2-0.8-0.4-1.1-0.7s-0.6-0.7-0.8-1.1
		s-0.3-0.9-0.3-1.5V213.8z M236,223.5c0,0.3,0.1,0.6,0.3,0.9c0.2,0.2,0.5,0.3,0.8,0.3s0.6-0.1,0.8-0.3c0.2-0.2,0.3-0.5,0.3-0.9v-9.7
		c0-0.3-0.1-0.6-0.3-0.9c-0.2-0.2-0.5-0.3-0.8-0.3s-0.6,0.1-0.8,0.3c-0.2,0.2-0.3,0.5-0.3,0.9V223.5z"/>
</g>
<g class="st0">
	<path class="st2" d="M81.3,233.7c0.1,0,0.3,0.4,0.3,0.5c-1.9,1.5-3.8,4.2-3.8,7.6c0,2,0.5,3.7,1.6,4.9c0,0.1-0.3,0.4-0.4,0.4
		c-0.7-0.4-2.4-2.4-2.4-5.5C76.6,238,78.9,235.2,81.3,233.7z"/>
	<path class="st2" d="M88.4,236.5c-0.4-0.2-1-0.2-1.4-0.2c-2.1,0-3.4,1.9-3.4,4.2c0,2.1,1.1,3.5,3.2,3.5c0.4,0,0.8-0.1,1.2-0.3
		c0.5-0.3,1-0.8,1.4-1.3c0.1,0,0.4,0.3,0.3,0.4c-0.4,0.7-1,1.4-1.5,1.6s-1.3,0.3-2.1,0.3c-2.6,0-4-1.6-4-4c0-1.8,0.8-3.6,2.8-4.6
		c0.8-0.4,1.6-0.6,2.6-0.6c0.5,0,1,0.1,1.5,0.2c0.4,0.1,0.8,0.1,1,0.2c-0.1,0.5-0.4,1.7-0.4,2.3c-0.1,0.1-0.5,0.1-0.6,0
		C89,237,88.9,236.7,88.4,236.5z"/>
	<path class="st2" d="M92.1,242.6c0.9-1.5,2.8-5,3.2-5.9c0.2-0.3,0.3-0.7,0.4-0.9c0.1,0,0.3,0,0.5,0c0.2,0,0.4,0,0.5,0
		c0,0.2,0.1,0.6,0.1,0.8c0.1,0.8,0.9,4.9,1.1,6.1c0.2,1,0.4,1.1,1.4,1.2c0.1,0.1,0,0.5-0.1,0.6c-0.3,0-1.2,0-1.7,0
		c-0.4,0-1.6,0-1.9,0c0-0.1,0-0.5,0-0.6c0.3,0,0.6-0.1,0.8-0.2c0.2-0.1,0.2-0.2,0.2-0.3c-0.1-0.6-0.3-1.6-0.4-2.1
		c0-0.1-0.1-0.1-0.1-0.1c-0.2,0-0.9,0-1.3,0c-0.9,0-0.9,0-1,0c-0.1,0-0.2,0.1-0.2,0.1c-0.4,0.8-0.8,1.6-1,2c-0.1,0.2,0,0.4,0.3,0.4
		l0.8,0.1c0.1,0.1,0,0.5-0.1,0.6c-0.3,0-1,0-1.9,0s-1.4,0-1.6,0c0-0.1,0-0.5,0-0.6C91.2,243.8,91.4,243.8,92.1,242.6z M94.1,240.4
		C94.1,240.5,94.1,240.5,94.1,240.4c0.2,0.1,0.7,0.1,1.1,0.1c0.3,0,0.7,0,0.9,0c0,0,0.1-0.1,0.1-0.1c-0.2-1-0.4-2.4-0.5-2.9
		c0,0-0.1,0-0.1,0C95.2,238.2,94.5,239.6,94.1,240.4z"/>
	<path class="st2" d="M101,235.8c0.7,0,1.5,0,2.2,0h0.4c0.1,0.2,0.1,0.3,0.4,0.8c1,1.7,3.1,5.2,3.6,6.1c0,0,0.1,0,0.1,0
		c0.3-1.9,0.7-4.4,0.8-5.4c0-0.4,0-0.6-0.4-0.7c-0.3-0.1-0.6-0.1-1-0.2c-0.1-0.1,0-0.5,0.1-0.6c0.3,0,1.2,0,1.9,0c0.5,0,1.4,0,1.7,0
		c0.1,0.1,0,0.5-0.1,0.6c-0.3,0-0.5,0.1-0.7,0.1c-0.4,0.1-0.5,0.4-0.6,0.8c-0.3,1.1-0.6,3.5-1,5.4c-0.1,0.6-0.2,1.4-0.3,1.9
		c-0.1,0-0.4,0-0.6,0c-0.3,0-0.5,0-0.5,0c-0.6-1.1-2.9-5.2-3.9-6.9c0,0-0.1,0-0.1,0c-0.2,1.5-0.7,4.5-0.8,5.4c0,0.5,0.1,0.7,0.4,0.7
		c0.2,0.1,0.6,0.1,1,0.2c0,0.1,0,0.5-0.1,0.5c-0.6,0-1.2-0.1-1.9-0.1c-0.6,0-1.6,0.1-2,0.1c0-0.1,0-0.5,0.1-0.5
		c0.3-0.1,0.7-0.1,1-0.2c0.3-0.1,0.5-0.3,0.6-0.8c0.2-0.8,0.6-2.9,1-5.8c0-0.2,0-0.6-0.3-0.7c-0.3-0.1-0.6-0.2-1.1-0.2
		C100.9,236.2,101,235.8,101,235.8z"/>
	<path class="st2" d="M111.9,242.6c0.9-1.5,2.8-5,3.2-5.9c0.2-0.3,0.3-0.7,0.4-0.9c0.1,0,0.3,0,0.5,0c0.2,0,0.4,0,0.5,0
		c0,0.2,0.1,0.6,0.1,0.8c0.1,0.8,0.9,4.9,1.1,6.1c0.2,1,0.4,1.1,1.4,1.2c0.1,0.1,0,0.5-0.1,0.6c-0.3,0-1.2,0-1.7,0
		c-0.4,0-1.6,0-1.9,0c0-0.1,0-0.5,0-0.6c0.3,0,0.6-0.1,0.8-0.2c0.2-0.1,0.2-0.2,0.2-0.3c-0.1-0.6-0.3-1.6-0.4-2.1
		c0-0.1-0.1-0.1-0.1-0.1c-0.2,0-0.9,0-1.3,0c-0.9,0-0.9,0-1,0c-0.1,0-0.2,0.1-0.2,0.1c-0.4,0.8-0.8,1.6-1,2c-0.1,0.2,0,0.4,0.3,0.4
		l0.8,0.1c0.1,0.1,0,0.5-0.1,0.6c-0.3,0-1,0-1.9,0s-1.4,0-1.6,0c0-0.1,0-0.5,0-0.6C111.1,243.8,111.2,243.8,111.9,242.6z
		 M113.9,240.4C113.9,240.5,113.9,240.5,113.9,240.4c0.2,0.1,0.7,0.1,1.1,0.1c0.3,0,0.7,0,0.9,0c0,0,0.1-0.1,0.1-0.1
		c-0.2-1-0.4-2.4-0.5-2.9c0,0-0.1,0-0.1,0C115,238.2,114.3,239.6,113.9,240.4z"/>
	<path class="st2" d="M122.8,241.2C122.8,241.2,122.7,241.2,122.8,241.2l-0.4,2c0,0.4,0.1,0.6,0.5,0.7c0.2,0.1,0.5,0.1,0.9,0.1
		c0,0.1,0,0.5-0.1,0.6c-0.4,0-1,0-1.9,0c-1.3,0-1.9,0-2.2,0c0-0.1,0-0.5,0-0.6c0.4-0.1,0.7-0.1,0.9-0.1c0.4-0.1,0.5-0.3,0.6-0.7
		c0.3-1.4,0.8-4.7,1-5.9c0.1-0.5,0-0.7-0.4-0.7c-0.2,0-0.5-0.1-0.8-0.1c-0.1-0.1,0-0.5,0.1-0.6c0.1,0,1.5,0,1.9,0c0.9,0,1.2,0,2.1,0
		c1.2,0,2.6,0.7,2.6,2.4c0,1.3-0.8,2.3-1.9,2.7c-0.6,0.2-1.1,0.3-2,0.3C123.4,241.3,123,241.2,122.8,241.2z M126.2,238.3
		c0-1.1-0.7-1.9-2-1.9c-0.1,0-0.4,0-0.5,0.1c-0.1,0-0.1,0.1-0.1,0.2c-0.1,0.5-0.4,2.1-0.6,3.7c0,0.1,0,0.1,0.1,0.1
		c0.2,0,0.4,0.1,0.7,0.1C125.4,240.6,126.2,239.7,126.2,238.3z"/>
	<path class="st2" d="M128.5,243.8c0.4-0.1,0.5-0.3,0.6-0.8c0.1-0.6,0.9-5.4,1-5.9c0-0.5,0-0.6-0.3-0.7c-0.2-0.1-0.6-0.1-0.9-0.2
		c-0.1-0.1,0-0.5,0.1-0.6c0.4,0,1.4,0,2.2,0h2.6c0.5,0,1.4,0,1.7-0.1c0,0,0.1,0.1,0.1,0.1c-0.1,0.3-0.3,1.3-0.4,2.1
		c-0.1,0.1-0.6,0.1-0.6,0c0-0.4-0.1-0.8-0.1-1c-0.1-0.3-0.2-0.4-0.6-0.4c-0.4,0-1.7,0-2,0c-0.1,0-0.2,0.2-0.3,0.3l-0.5,2.9
		c0,0.1,0,0.1,0.1,0.1c0.7,0,1.4,0,2,0c0.2,0,0.4-0.1,0.5-0.4c0.1-0.2,0.2-0.4,0.3-0.6c0.1-0.1,0.6-0.1,0.7,0
		c-0.1,0.3-0.2,1-0.3,1.5c-0.1,0.5-0.1,1-0.2,1.5c-0.1,0.1-0.5,0.1-0.6,0c0-0.2,0-0.5-0.1-0.7c0-0.2-0.2-0.4-0.4-0.4
		c-0.4,0-1.3,0-1.9,0c0,0-0.1,0-0.1,0.1c-0.2,0.9-0.3,2.1-0.4,2.7c0,0.2,0.1,0.4,0.2,0.4c0.3,0.1,1.5,0.1,2.4,0.1
		c0.4,0,0.7-0.1,0.9-0.4c0.3-0.3,0.5-0.7,0.9-1.3c0.1,0,0.5,0.2,0.5,0.2c-0.1,0.5-0.5,1.3-0.8,1.8c-0.1,0.2-0.3,0.4-0.5,0.4
		c-0.9,0-1.7,0-4.4,0c-0.9,0-1.7,0-2.2,0c-0.1-0.1,0-0.5,0.1-0.6C128,243.9,128.3,243.9,128.5,243.8z M134.8,233.9
		c-0.3,0.2-2.5,1.3-2.7,1.3c0,0-0.3-0.4-0.3-0.4c0.2-0.2,1.8-1.6,2-1.7c0.3,0,0.8,0.4,0.9,0.6C134.9,233.8,134.9,233.9,134.8,233.9z
		"/>
	<path class="st2" d="M138,243.7c0.4,0.3,0.8,0.4,1.4,0.4c0.8,0,1.6-0.4,1.6-1.5c0-0.8-0.4-1.1-1.7-2.1c-1-0.7-1.8-1.4-1.8-2.5
		c0-1.7,1.4-2.5,3-2.5c0.6,0,1.2,0.1,1.5,0.2c0.4,0.1,0.6,0.1,0.8,0.2c-0.2,0.5-0.4,1.3-0.5,2.1c-0.1,0.1-0.5,0.1-0.5,0
		c0-0.9-0.1-1.4-0.4-1.6c-0.3-0.2-0.7-0.3-1.1-0.3c-1.1,0-1.5,0.8-1.5,1.5c0,0.6,0.3,1,0.7,1.4c0.5,0.4,1.4,0.9,1.9,1.3
		c0.5,0.4,1,1,1,1.8c0,1.3-1.1,2.6-3.2,2.6c-1.1,0-2-0.4-2.4-0.7c-0.1-0.2-0.1-1.6-0.1-2.2c0-0.1,0.5-0.2,0.6-0.1
		C137.3,242.6,137.5,243.3,138,243.7z"/>
	<path class="st2" d="M148.6,243.8c0.4-0.1,0.5-0.3,0.6-0.7c0.2-0.7,0.3-1.4,0.4-1.9c0-0.2,0-0.5,0-0.7c-0.1-0.5-0.6-1.9-1-3
		c-0.3-0.9-0.5-1-1-1.1c-0.2,0-0.4-0.1-0.7-0.1c-0.1-0.1,0-0.5,0.1-0.6c0.3,0,0.8,0,1.6,0c1,0,1.7,0,1.9,0c0,0.1,0,0.5-0.1,0.6
		c-0.2,0-0.5,0.1-0.6,0.1c-0.2,0.1-0.2,0.2-0.2,0.3c0.2,0.7,0.9,2.6,1.1,3.1c0,0.1,0.1,0,0.1,0c0.6-0.8,1.9-2.6,2.1-3
		c0.1-0.2,0.1-0.4-0.2-0.4c-0.2-0.1-0.4-0.1-0.7-0.1c-0.1-0.1,0-0.5,0.1-0.6c0.4,0,1.1,0,1.6,0c0.8,0,1.4,0,1.6,0
		c0.1,0.1,0,0.5-0.1,0.6c-0.2,0-0.5,0.1-0.6,0.1c-0.5,0.1-0.7,0.3-1.3,0.9c-0.8,1-1.7,2.2-2.3,3.1c-0.1,0.1-0.2,0.4-0.2,0.5
		c-0.1,0.7-0.2,1.3-0.3,2c-0.1,0.6,0,0.8,0.3,0.9c0.2,0.1,0.7,0.1,1,0.2c0,0.1,0,0.5-0.1,0.6c-0.3,0-1.4,0-2,0c-0.8,0-1.9,0-2.2,0
		c0-0.1,0-0.5,0.1-0.6C148,243.9,148.4,243.9,148.6,243.8z"/>
	<path class="st2" d="M158.4,243.8c0.3-0.1,0.5-0.2,0.6-0.7c0.1-0.5,0.3-1.9,0.5-3c0.2-1.2,0.4-2.5,0.5-3c0-0.4,0-0.5-0.4-0.6
		c-0.2,0-0.6-0.1-0.9-0.1c-0.1-0.1,0-0.5,0.1-0.6c0.6,0,1.2,0.1,1.8,0c0.7,0,1.2,0,2.1,0c1.1,0,2.4,0.4,2.4,1.9c0,1-0.7,1.7-1.7,2.1
		c0,0,0,0.1,0,0.1c1,0.3,1.8,0.8,1.8,2c0,1-0.6,1.9-1.9,2.5c-0.7,0.3-1.6,0.3-2.3,0.3c-0.6,0-2.6-0.1-3.6,0c-0.1-0.1,0-0.5,0.1-0.6
		C157.9,243.9,158.1,243.9,158.4,243.8z M163.7,242c0-1-0.8-1.8-2.4-1.8c-0.1,0-0.4,0-0.5,0c-0.1,0-0.1,0.1-0.2,0.2
		c-0.1,0.7-0.4,2.3-0.4,2.8c0,0.2,0.1,0.3,0.1,0.4c0.3,0.2,0.7,0.3,1.2,0.3C162.7,243.9,163.7,243.3,163.7,242z M161.4,236.5
		c-0.1,0-0.1,0.1-0.1,0.2c-0.1,0.6-0.3,1.8-0.4,2.7c0,0.1,0,0.1,0.1,0.1c0.1,0,0.4,0,0.6,0c1.2,0,2.2-0.5,2.2-1.7
		c0-1-0.6-1.5-1.8-1.5C161.8,236.4,161.5,236.4,161.4,236.5z"/>
	<path class="st2" d="M167.6,242.6c0.9-1.5,2.8-5,3.2-5.9c0.2-0.3,0.3-0.7,0.4-0.9c0.1,0,0.3,0,0.5,0s0.4,0,0.5,0
		c0,0.2,0.1,0.6,0.1,0.8c0.1,0.8,0.9,4.9,1.1,6.1c0.2,1,0.4,1.1,1.4,1.2c0.1,0.1,0,0.5-0.1,0.6c-0.3,0-1.2,0-1.7,0
		c-0.4,0-1.6,0-1.9,0c0-0.1,0-0.5,0-0.6c0.3,0,0.6-0.1,0.8-0.2c0.2-0.1,0.2-0.2,0.2-0.3c-0.1-0.6-0.3-1.6-0.4-2.1
		c0-0.1-0.1-0.1-0.1-0.1c-0.2,0-0.9,0-1.3,0c-0.9,0-0.9,0-1,0c-0.1,0-0.2,0.1-0.2,0.1c-0.4,0.8-0.8,1.6-1,2c-0.1,0.2,0,0.4,0.3,0.4
		l0.8,0.1c0.1,0.1,0,0.5-0.1,0.6c-0.3,0-1,0-1.9,0c-0.9,0-1.4,0-1.6,0c0-0.1,0-0.5,0-0.6C166.7,243.8,166.9,243.8,167.6,242.6z
		 M169.6,240.4C169.6,240.5,169.6,240.5,169.6,240.4c0.2,0.1,0.7,0.1,1.1,0.1c0.3,0,0.7,0,0.9,0c0,0,0.1-0.1,0.1-0.1
		c-0.2-1-0.4-2.4-0.5-2.9c0,0-0.1,0-0.1,0C170.7,238.2,170,239.6,169.6,240.4z"/>
	<path class="st2" d="M176.7,235.8c0.3,0,1.4,0,1.9,0c1.1,0,1.5,0,2,0c1.6,0,2.4,0.9,2.4,2.1c0,1.4-1.1,2.1-2.1,2.5
		c0,0-0.1,0.1-0.1,0.1c0.4,0.9,1.1,2,1.7,2.8c0.4,0.5,0.8,0.6,1.7,0.8c0,0.1,0,0.5-0.1,0.5c-0.7,0-1.9,0-2.3-0.3
		c-0.2-0.1-0.4-0.3-0.6-0.6c-0.4-0.7-1-1.7-1.4-2.5c-0.1-0.3-0.3-0.4-0.4-0.4c-0.2,0-0.6,0-0.8,0c0,0-0.1,0.1-0.1,0.1
		c-0.1,0.8-0.3,1.8-0.3,2.4c0,0.4,0.1,0.5,0.4,0.6c0.2,0.1,0.5,0.1,0.9,0.2c0,0.1,0,0.5-0.1,0.5c-0.7,0-1.6,0-2.1,0
		c-0.9,0-1.7,0-2,0c-0.1-0.1,0-0.5,0.1-0.5c0.3,0,0.7-0.1,0.9-0.1c0.3-0.1,0.5-0.2,0.6-0.7c0.3-1.3,0.8-4.8,1-6
		c0-0.5-0.1-0.6-0.4-0.7c-0.2-0.1-0.6-0.1-0.9-0.1C176.6,236.2,176.6,235.8,176.7,235.8z M179.8,236.4c-0.1,0-0.4,0-0.4,0.1
		c-0.1,0-0.1,0.2-0.2,0.3c-0.1,0.6-0.4,2.3-0.5,3.3c0,0.1,0,0.1,0.1,0.1c0.6,0,1.2,0,1.6-0.2c0.7-0.3,1.3-0.8,1.3-1.8
		C181.7,237,181,236.4,179.8,236.4z"/>
	<path class="st2" d="M185.6,235.8c0.3,0,1.5,0,1.9,0c0.8,0,1.6,0,2,0c1.6,0,2.4,0.9,2.4,2.1c0,1.4-1,2.2-2,2.5c0,0-0.1,0.1,0,0.1
		c0.4,0.7,1.3,2,2,2.7c0.2,0.2,0.6,0.4,0.9,0.5c0.1,0,0.2,0,0.2-0.1c0.5-0.9,3.3-6.1,3.7-6.9c0.2-0.3,0.3-0.7,0.4-0.9
		c0.1,0,0.4,0,0.5,0s0.3,0,0.5,0c0,0.2,0,0.5,0.1,0.8c0.1,0.8,0.9,4.9,1.2,6.1c0.3,1,0.4,1.1,1.4,1.2c0.1,0.1,0,0.5-0.1,0.6
		c-0.4,0-1.4,0-1.7,0c-0.4,0-1.5,0-1.9,0c0-0.1,0-0.5,0-0.6c0.3,0,0.6-0.1,0.8-0.2c0.2-0.1,0.2-0.2,0.2-0.3
		c-0.1-0.6-0.2-1.6-0.4-2.1c0-0.1-0.1-0.1-0.1-0.1c-0.3,0-0.9,0-1.3,0c-0.8,0-0.9,0-1,0c-0.1,0-0.2,0.1-0.2,0.1
		c-0.3,0.6-0.9,1.8-1.2,2.4c0,0.1,0,0.2,0.1,0.2c0.1,0,0.2,0,0.3,0c0.1,0.1,0,0.5-0.1,0.6c-0.2,0-0.6,0-0.9,0c-1.5,0-2-0.1-2.7-0.9
		c-0.5-0.6-1.2-1.9-1.7-2.6c-0.1-0.2-0.3-0.3-0.4-0.3c-0.2,0-0.6,0-0.8,0c0,0-0.1,0.1-0.1,0.1c-0.1,0.8-0.3,1.9-0.3,2.4
		c0,0.4,0.1,0.5,0.4,0.6c0.2,0.1,0.5,0.1,0.9,0.2c0,0.1,0,0.4-0.1,0.5c-0.8,0-1.7,0-2.1,0c-0.8,0-1.8,0-2,0c0-0.1,0-0.5,0.1-0.5
		c0.3,0,0.7-0.1,0.9-0.2c0.3-0.1,0.5-0.2,0.6-0.7c0.3-1.3,0.8-4.8,1-6c0-0.5-0.1-0.6-0.4-0.7c-0.2-0.1-0.6-0.1-0.9-0.1
		C185.6,236.2,185.6,235.8,185.6,235.8z M188.8,236.4c-0.1,0-0.4,0-0.5,0.1c-0.1,0-0.1,0.2-0.2,0.3c-0.1,0.6-0.4,2.3-0.5,3.3
		c0,0.1,0,0.1,0.1,0.1c0.4,0,1.3,0,1.8-0.2c0.7-0.3,1.1-0.9,1.1-1.8C190.6,237.1,190,236.4,188.8,236.4z M195.6,240.4
		C195.6,240.5,195.6,240.5,195.6,240.4c0.2,0.1,0.7,0.1,1.1,0.1c0.3,0,0.7,0,0.9,0c0,0,0.1-0.1,0.1-0.1c-0.2-1-0.4-2.3-0.5-2.9
		c0,0-0.1,0-0.1,0C196.7,238.2,196,239.6,195.6,240.4z"/>
	<path class="st2" d="M205.5,235.8c0.5,0,1.1,0,2.1,0c0.8,0,1.5,0,1.8,0c0.1,0.1,0,0.5-0.1,0.6c-0.4,0-0.6,0.1-0.8,0.1
		c-0.4,0.1-0.5,0.4-0.5,0.6c-0.2,1-0.9,5.6-1,6.2c0,0.2,0.1,0.4,0.2,0.4c0.4,0.1,1.9,0.1,2.5,0.1c0.6,0,1.1-0.7,1.8-2
		c0.1,0,0.5,0.1,0.5,0.3c-0.2,0.6-0.6,1.6-1,2.1c-0.1,0.1-0.3,0.4-0.4,0.4c-1,0.1-3.6,0-4.3,0c-1.3,0-1.9,0.1-2.1,0.1
		c-0.1-0.1,0-0.5,0.1-0.6c0.4-0.1,0.7-0.1,1-0.2c0.4-0.1,0.4-0.3,0.5-0.6c0.2-1.1,0.9-5.2,1-6.1c0.1-0.5-0.1-0.6-0.4-0.7
		c-0.2,0-0.5-0.1-0.8-0.1C205.4,236.2,205.4,235.8,205.5,235.8z"/>
	<path class="st2" d="M213.7,235.8c0.3,0,1.2,0,1.9,0c0.7,0,1.5,0,1.9,0c0.1,0.1,0,0.5-0.1,0.5c-0.3,0-0.6,0.1-0.8,0.1
		c-0.4,0.1-0.5,0.2-0.6,0.6c-0.1,0.6-0.3,1.7-0.5,2.9c-0.2,1.3-0.4,2.6-0.5,3.1c0,0.4,0,0.6,0.4,0.8c0.2,0,0.4,0.1,0.8,0.1
		c0,0.1,0,0.5-0.1,0.5c-0.4,0-1.3,0-1.9,0c-0.7,0-1.8,0-2.1,0c0-0.1,0-0.5,0.1-0.5c0.4,0,0.6-0.1,0.8-0.1c0.4-0.1,0.6-0.3,0.6-0.6
		c0.1-0.4,0.3-1.2,0.6-3.5c0.2-1.3,0.3-2,0.4-2.7c0-0.4,0-0.5-0.3-0.6c-0.2-0.1-0.5-0.1-1-0.1C213.6,236.2,213.7,235.8,213.7,235.8z
		"/>
	<path class="st2" d="M218.4,243.8c0.3-0.1,0.5-0.2,0.6-0.7c0.1-0.5,0.3-1.9,0.5-3c0.2-1.2,0.4-2.5,0.5-3c0-0.4,0-0.5-0.4-0.6
		c-0.2,0-0.6-0.1-0.9-0.1c-0.1-0.1,0-0.5,0.1-0.6c0.6,0,1.2,0.1,1.8,0c0.7,0,1.2,0,2.1,0c1.1,0,2.4,0.4,2.4,1.9c0,1-0.7,1.7-1.7,2.1
		c0,0,0,0.1,0,0.1c1,0.3,1.8,0.8,1.8,2c0,1-0.6,1.9-1.9,2.5c-0.7,0.3-1.6,0.3-2.3,0.3c-0.6,0-2.6-0.1-3.6,0c-0.1-0.1,0-0.5,0.1-0.6
		C217.9,243.9,218.2,243.9,218.4,243.8z M223.7,242c0-1-0.8-1.8-2.4-1.8c-0.1,0-0.4,0-0.5,0c-0.1,0-0.1,0.1-0.2,0.2
		c-0.1,0.7-0.4,2.3-0.4,2.8c0,0.2,0.1,0.3,0.1,0.4c0.3,0.2,0.7,0.3,1.2,0.3C222.7,243.9,223.7,243.3,223.7,242z M221.4,236.5
		c-0.1,0-0.1,0.1-0.1,0.2c-0.1,0.6-0.3,1.8-0.4,2.7c0,0.1,0,0.1,0.1,0.1c0.1,0,0.4,0,0.6,0c1.2,0,2.2-0.5,2.2-1.7
		c0-1-0.6-1.5-1.8-1.5C221.8,236.4,221.5,236.4,221.4,236.5z"/>
	<path class="st2" d="M227.3,235.8c0.3,0,1.4,0,1.9,0c1.1,0,1.5,0,2,0c1.6,0,2.4,0.9,2.4,2.1c0,1.4-1.1,2.1-2.1,2.5
		c0,0-0.1,0.1-0.1,0.1c0.4,0.9,1.1,2,1.7,2.8c0.4,0.5,0.8,0.6,1.7,0.8c0,0.1,0,0.5-0.1,0.5c-0.7,0-1.9,0-2.3-0.3
		c-0.2-0.1-0.4-0.3-0.6-0.6c-0.4-0.7-1-1.7-1.4-2.5c-0.1-0.3-0.3-0.4-0.4-0.4c-0.2,0-0.6,0-0.8,0c0,0-0.1,0.1-0.1,0.1
		c-0.1,0.8-0.3,1.8-0.3,2.4c0,0.4,0.1,0.5,0.4,0.6c0.2,0.1,0.5,0.1,0.9,0.2c0,0.1,0,0.5-0.1,0.5c-0.7,0-1.6,0-2.1,0
		c-0.9,0-1.7,0-2,0c-0.1-0.1,0-0.5,0.1-0.5c0.3,0,0.7-0.1,0.9-0.1c0.3-0.1,0.5-0.2,0.6-0.7c0.3-1.3,0.8-4.8,1-6
		c0-0.5-0.1-0.6-0.4-0.7c-0.2-0.1-0.6-0.1-0.9-0.1C227.1,236.2,227.2,235.8,227.3,235.8z M230.4,236.4c-0.1,0-0.4,0-0.4,0.1
		c-0.1,0-0.1,0.2-0.2,0.3c-0.1,0.6-0.4,2.3-0.5,3.3c0,0.1,0,0.1,0.1,0.1c0.6,0,1.2,0,1.6-0.2c0.7-0.3,1.3-0.8,1.3-1.8
		C232.2,237,231.6,236.4,230.4,236.4z"/>
	<path class="st2" d="M235.8,243.8c0.4-0.1,0.5-0.3,0.6-0.8c0.1-0.6,0.9-5.4,1-5.9c0-0.5,0-0.6-0.3-0.7c-0.2-0.1-0.6-0.1-0.9-0.2
		c-0.1-0.1,0-0.5,0.1-0.6c0.4,0,1.4,0,2.2,0h2.6c0.5,0,1.4,0,1.7-0.1c0,0,0.1,0.1,0.1,0.1c-0.1,0.3-0.3,1.3-0.4,2.1
		c-0.1,0.1-0.6,0.1-0.6,0c0-0.4-0.1-0.8-0.1-1c-0.1-0.3-0.2-0.4-0.6-0.4c-0.4,0-1.7,0-2,0c-0.1,0-0.2,0.2-0.3,0.3l-0.5,2.9
		c0,0.1,0,0.1,0.1,0.1c0.7,0,1.4,0,2,0c0.2,0,0.4-0.1,0.5-0.4c0.1-0.2,0.2-0.4,0.3-0.6c0.1-0.1,0.6-0.1,0.7,0
		c-0.1,0.3-0.2,1-0.3,1.5c-0.1,0.5-0.1,1-0.2,1.5c-0.1,0.1-0.5,0.1-0.6,0c0-0.2,0-0.5-0.1-0.7c0-0.2-0.2-0.4-0.4-0.4
		c-0.4,0-1.3,0-1.9,0c0,0-0.1,0-0.1,0.1c-0.2,0.9-0.3,2.1-0.4,2.7c0,0.2,0.1,0.4,0.2,0.4c0.3,0.1,1.5,0.1,2.4,0.1
		c0.4,0,0.7-0.1,0.9-0.4c0.3-0.3,0.5-0.7,0.9-1.3c0.1,0,0.5,0.2,0.5,0.2c-0.1,0.5-0.5,1.3-0.8,1.8c-0.1,0.2-0.3,0.4-0.5,0.4
		c-0.9,0-1.7,0-4.4,0c-0.9,0-1.7,0-2.2,0c-0.1-0.1,0-0.5,0.1-0.6C235.2,243.9,235.5,243.9,235.8,243.8z"/>
	<path class="st2" d="M243.4,247.2c-0.1,0-0.4-0.4-0.3-0.5c1.9-1.5,3.8-4.2,3.8-7.6c0-2-0.6-3.7-1.6-4.9c0-0.1,0.3-0.4,0.4-0.4
		c0.7,0.4,2.4,2.4,2.4,5.5C248.1,242.8,245.8,245.7,243.4,247.2z"/>
</g>
</svg>
