<?xml version="1.0" encoding="utf-8"?>
<!-- Generator: Adobe Illustrator 27.5.0, SVG Export Plug-In . SVG Version: 6.00 Build 0)  -->
<svg version="1.1" id="Capa_1" xmlns="http://www.w3.org/2000/svg" xmlns:xlink="http://www.w3.org/1999/xlink" x="0px" y="0px"
	 viewBox="0 0 324.3 181.7" style="enable-background:new 0 0 324.3 181.7;" xml:space="preserve">
<style type="text/css">
	.st0{enable-background:new    ;}
	.st1{fill:#F9F199;}
	.st2{fill:#FFFFFF;}
	.st3{fill:url(#SVGID_1_);}
</style>
<g class="st0">
	<path class="st1" d="M84.8,170.7v1c0,0.5-0.1,1-0.3,1.5c-0.2,0.5-0.5,0.9-0.8,1.2c-0.3,0.4-0.7,0.6-1.2,0.9s-1,0.3-1.5,0.3
		c-0.5,0-0.9-0.1-1.4-0.2s-0.9-0.3-1.3-0.7c-0.4-0.3-0.7-0.7-0.9-1.2c-0.2-0.5-0.4-1.1-0.4-1.9v-9.1c0-0.5,0.1-1,0.3-1.5
		c0.2-0.5,0.5-0.9,0.8-1.2s0.8-0.6,1.2-0.8s1-0.3,1.6-0.3c1.1,0,2,0.4,2.7,1.1c0.3,0.4,0.6,0.8,0.8,1.3c0.2,0.5,0.3,1,0.3,1.6v0.9
		h-2.4v-0.8c0-0.5-0.1-0.9-0.4-1.2c-0.3-0.3-0.6-0.5-1.1-0.5c-0.6,0-1,0.2-1.2,0.5s-0.3,0.8-0.3,1.4v8.5c0,0.5,0.1,0.9,0.3,1.2
		c0.2,0.3,0.6,0.5,1.1,0.5c0.2,0,0.3,0,0.5-0.1c0.2-0.1,0.3-0.1,0.5-0.3c0.1-0.1,0.3-0.3,0.4-0.5c0.1-0.2,0.1-0.5,0.1-0.8v-0.8H84.8
		z"/>
	<path class="st1" d="M86.7,175.5v-16.6h2.4v7.1h2.9v-7.1h2.4v16.6h-2.4v-7.4h-2.9v7.4H86.7z"/>
	<path class="st1" d="M96.7,175.5v-16.6h7.1v2.2h-4.7v4.9h4.1v2.2h-4.1v4.9h4.7v2.4H96.7z"/>
	<path class="st1" d="M112.9,170.7v1c0,0.5-0.1,1-0.3,1.5c-0.2,0.5-0.5,0.9-0.8,1.2c-0.3,0.4-0.7,0.6-1.2,0.9s-1,0.3-1.5,0.3
		c-0.5,0-0.9-0.1-1.4-0.2s-0.9-0.3-1.3-0.7c-0.4-0.3-0.7-0.7-0.9-1.2c-0.2-0.5-0.4-1.1-0.4-1.9v-9.1c0-0.5,0.1-1,0.3-1.5
		c0.2-0.5,0.5-0.9,0.8-1.2s0.8-0.6,1.2-0.8s1-0.3,1.6-0.3c1.1,0,2,0.4,2.7,1.1c0.3,0.4,0.6,0.8,0.8,1.3c0.2,0.5,0.3,1,0.3,1.6v0.9
		h-2.4v-0.8c0-0.5-0.1-0.9-0.4-1.2c-0.3-0.3-0.6-0.5-1.1-0.5c-0.6,0-1,0.2-1.2,0.5s-0.3,0.8-0.3,1.4v8.5c0,0.5,0.1,0.9,0.3,1.2
		c0.2,0.3,0.6,0.5,1.1,0.5c0.2,0,0.3,0,0.5-0.1c0.2-0.1,0.3-0.1,0.5-0.3c0.1-0.1,0.3-0.3,0.4-0.5c0.1-0.2,0.1-0.5,0.1-0.8v-0.8
		H112.9z"/>
	<path class="st1" d="M114.9,175.5v-16.6h2.4v7.6h0l3.5-7.6h2.4l-3.2,6.6l3.9,10h-2.5l-2.7-7.4l-1.3,2.4v5H114.9z"/>
	<path class="st1" d="M129.3,175.5v-16.6h2.4v16.6H129.3z"/>
	<path class="st1" d="M133.9,175.5v-16.6h2.3l3.6,10h0v-10h2.4v16.6h-2.2l-3.6-10h0v10H133.9z"/>
	<path class="st1" d="M144.2,170.2v-2.4h2.4v2.4H144.2z M144.2,175.5v-2.4h2.4v2.4H144.2z"/>
	<path class="st1" d="M155.5,175.5v-14.1l-2.4,1.7v-2.5l2.4-1.7h2.4v16.6H155.5z"/>
	<path class="st1" d="M161.4,163.2c0-0.5,0-0.8,0-1.2s0.1-0.6,0.2-0.8s0.2-0.4,0.3-0.6c0.1-0.2,0.2-0.4,0.4-0.6
		c0.3-0.4,0.7-0.7,1.2-0.9s1-0.3,1.5-0.3s1.1,0.1,1.5,0.3s0.9,0.5,1.2,0.9c0.2,0.2,0.3,0.4,0.4,0.6c0.1,0.2,0.2,0.4,0.3,0.6
		s0.1,0.5,0.2,0.8s0,0.7,0,1.2c0,0.5,0,0.9,0,1.3s-0.1,0.6-0.1,0.9s-0.2,0.5-0.4,0.7s-0.4,0.4-0.7,0.7c0.3,0.2,0.5,0.4,0.7,0.7
		s0.3,0.5,0.4,0.8s0.1,0.7,0.1,1.1c0,0.4,0,1,0,1.6c0,0.5,0,0.9,0,1.3s-0.1,0.6-0.1,0.9c0,0.2-0.1,0.5-0.2,0.6
		c-0.1,0.2-0.2,0.3-0.3,0.5c-0.3,0.4-0.6,0.8-1.1,1c-0.5,0.3-1.1,0.4-1.8,0.4c-0.7,0-1.3-0.1-1.8-0.4c-0.5-0.3-0.9-0.6-1.1-1
		c-0.1-0.2-0.2-0.4-0.3-0.5s-0.2-0.4-0.2-0.6c0-0.2-0.1-0.5-0.1-0.9s0-0.8,0-1.3c0-0.6,0-1.1,0-1.6c0-0.4,0.1-0.8,0.1-1.1
		s0.2-0.6,0.4-0.8c0.2-0.2,0.4-0.4,0.7-0.7c-0.3-0.2-0.5-0.5-0.7-0.7c-0.2-0.2-0.3-0.4-0.4-0.7s-0.1-0.6-0.1-0.9
		S161.4,163.7,161.4,163.2z M166.1,162.3c0-0.3-0.1-0.6-0.4-0.8c-0.2-0.2-0.5-0.3-0.8-0.3s-0.6,0.1-0.8,0.3
		c-0.2,0.2-0.4,0.5-0.4,0.8v2.4c0,0.3,0.1,0.6,0.4,0.8c0.2,0.2,0.5,0.3,0.8,0.3s0.6-0.1,0.8-0.3c0.2-0.2,0.4-0.5,0.4-0.8V162.3z
		 M166.1,168.8c0-0.3-0.1-0.6-0.4-0.8c-0.2-0.2-0.5-0.3-0.8-0.3s-0.6,0.1-0.8,0.3c-0.2,0.2-0.4,0.5-0.4,0.8v3.3
		c0,0.3,0.1,0.6,0.4,0.8c0.2,0.2,0.5,0.3,0.8,0.3s0.6-0.1,0.8-0.3c0.2-0.2,0.4-0.5,0.4-0.8V168.8z"/>
	<path class="st1" d="M170.3,170.2v-2.4h2.4v2.4H170.3z M170.3,175.5v-2.4h2.4v2.4H170.3z"/>
	<path class="st1" d="M177.3,165.9c0.7,0,1.2-0.1,1.5-0.3s0.4-0.6,0.4-1.2v-2.1c0-0.3-0.1-0.6-0.3-0.8c-0.2-0.2-0.5-0.3-0.9-0.3
		c-0.4,0-0.7,0.1-0.9,0.4c-0.2,0.3-0.3,0.5-0.3,0.8v1.4h-2.4v-1.4c0-0.5,0.1-0.9,0.3-1.4c0.2-0.4,0.4-0.8,0.8-1.1
		c0.3-0.3,0.7-0.6,1.1-0.7s0.9-0.3,1.4-0.3c0.7,0,1.2,0.1,1.6,0.4c0.4,0.3,0.8,0.5,1,0.8c0.2,0.2,0.3,0.4,0.4,0.6
		c0.1,0.2,0.2,0.4,0.3,0.7c0.1,0.5,0.2,1.3,0.2,2.3c0,0.6,0,1,0,1.4s-0.1,0.7-0.2,0.9c-0.1,0.2-0.3,0.5-0.5,0.6
		c-0.2,0.2-0.5,0.4-0.8,0.6c0.4,0.2,0.7,0.5,0.9,0.7c0.2,0.2,0.3,0.4,0.4,0.7c0.1,0.3,0.1,0.6,0.2,1s0,0.9,0,1.5c0,0.5,0,1,0,1.4
		s-0.1,0.7-0.1,0.9c0,0.2-0.1,0.5-0.2,0.6s-0.2,0.3-0.3,0.5c-0.3,0.4-0.7,0.8-1.1,1.1c-0.5,0.3-1.1,0.4-1.8,0.4
		c-0.4,0-0.8-0.1-1.2-0.2s-0.8-0.3-1.1-0.6c-0.3-0.3-0.6-0.6-0.9-1.1c-0.2-0.5-0.3-1-0.3-1.7v-1.4h2.4v1.2c0,0.4,0.1,0.7,0.3,0.9
		c0.2,0.2,0.5,0.4,0.9,0.4c0.4,0,0.6-0.1,0.9-0.4c0.2-0.2,0.3-0.6,0.3-1v-2.4c0-0.7-0.1-1.1-0.4-1.3c-0.1-0.1-0.3-0.2-0.6-0.2
		c-0.2,0-0.6,0-0.9,0V165.9z"/>
	<path class="st1" d="M183.1,162.3c0-0.6,0.1-1.1,0.3-1.5c0.2-0.4,0.5-0.8,0.8-1.1c0.3-0.3,0.7-0.5,1.1-0.7s0.9-0.2,1.3-0.2
		s0.9,0.1,1.3,0.2c0.4,0.2,0.8,0.4,1.1,0.7c0.3,0.3,0.6,0.7,0.8,1.1c0.2,0.4,0.3,0.9,0.3,1.5v9.7c0,0.6-0.1,1.1-0.3,1.5
		c-0.2,0.4-0.5,0.8-0.8,1.1c-0.3,0.3-0.7,0.5-1.1,0.7c-0.4,0.2-0.9,0.2-1.3,0.2s-0.9-0.1-1.3-0.2s-0.8-0.4-1.1-0.7
		c-0.3-0.3-0.6-0.7-0.8-1.1c-0.2-0.4-0.3-0.9-0.3-1.5V162.3z M185.5,172.1c0,0.3,0.1,0.6,0.3,0.9c0.2,0.2,0.5,0.3,0.8,0.3
		s0.6-0.1,0.8-0.3c0.2-0.2,0.3-0.5,0.3-0.9v-9.7c0-0.3-0.1-0.6-0.3-0.9c-0.2-0.2-0.5-0.3-0.8-0.3s-0.6,0.1-0.8,0.3
		c-0.2,0.2-0.3,0.5-0.3,0.9V172.1z"/>
	<path class="st1" d="M196.4,170.2v-2.4h7v2.4H196.4z"/>
	<path class="st1" d="M212.5,175.5v-14.1l-2.4,1.7v-2.5l2.4-1.7h2.4v16.6H212.5z"/>
	<path class="st1" d="M219.2,175.5l2.7-7l0,0c-0.1,0.1-0.2,0.1-0.4,0.2c-0.2,0-0.4,0.1-0.6,0.1c-0.4,0-0.8-0.1-1.2-0.3
		c-0.4-0.2-0.6-0.5-0.8-0.8c-0.1-0.2-0.2-0.3-0.3-0.5s-0.1-0.4-0.1-0.7c0-0.3-0.1-0.6-0.1-1.1c0-0.4,0-1,0-1.6c0-0.5,0-1,0-1.3
		s0-0.6,0.1-0.9c0-0.2,0.1-0.4,0.2-0.6s0.2-0.3,0.3-0.5c0.3-0.5,0.7-0.9,1.3-1.2c0.5-0.3,1.1-0.4,1.8-0.4c0.7,0,1.2,0.1,1.8,0.4
		c0.5,0.3,0.9,0.7,1.2,1.2c0.1,0.2,0.2,0.4,0.3,0.5s0.1,0.4,0.2,0.6c0,0.2,0.1,0.5,0.1,0.9s0,0.8,0,1.3c0,0.5,0,0.9,0,1.3
		s0,0.6-0.1,0.9c0,0.2-0.1,0.5-0.2,0.7s-0.1,0.4-0.2,0.6l-3.1,8.3H219.2z M220.7,165.4c0,0.4,0.1,0.6,0.4,0.9
		c0.2,0.2,0.5,0.3,0.8,0.3s0.6-0.1,0.8-0.3c0.2-0.2,0.4-0.5,0.4-0.9v-3.1c0-0.4-0.1-0.6-0.4-0.9c-0.2-0.2-0.5-0.3-0.8-0.3
		s-0.6,0.1-0.8,0.3c-0.2,0.2-0.4,0.5-0.4,0.9V165.4z"/>
	<path class="st1" d="M227.2,170.2v-2.4h2.4v2.4H227.2z M227.2,175.5v-2.4h2.4v2.4H227.2z"/>
	<path class="st1" d="M231.4,162.3c0-0.6,0.1-1.1,0.3-1.5c0.2-0.4,0.5-0.8,0.8-1.1c0.3-0.3,0.7-0.5,1.1-0.7s0.9-0.2,1.3-0.2
		s0.9,0.1,1.3,0.2c0.4,0.2,0.8,0.4,1.1,0.7c0.3,0.3,0.6,0.7,0.8,1.1c0.2,0.4,0.3,0.9,0.3,1.5v9.7c0,0.6-0.1,1.1-0.3,1.5
		c-0.2,0.4-0.5,0.8-0.8,1.1c-0.3,0.3-0.7,0.5-1.1,0.7c-0.4,0.2-0.9,0.2-1.3,0.2s-0.9-0.1-1.3-0.2s-0.8-0.4-1.1-0.7
		c-0.3-0.3-0.6-0.7-0.8-1.1c-0.2-0.4-0.3-0.9-0.3-1.5V162.3z M233.8,172.1c0,0.3,0.1,0.6,0.3,0.9c0.2,0.2,0.5,0.3,0.8,0.3
		s0.6-0.1,0.8-0.3c0.2-0.2,0.3-0.5,0.3-0.9v-9.7c0-0.3-0.1-0.6-0.3-0.9c-0.2-0.2-0.5-0.3-0.8-0.3s-0.6,0.1-0.8,0.3
		c-0.2,0.2-0.3,0.5-0.3,0.9V172.1z"/>
	<path class="st1" d="M240.1,162.3c0-0.6,0.1-1.1,0.3-1.5c0.2-0.4,0.5-0.8,0.8-1.1c0.3-0.3,0.7-0.5,1.1-0.7s0.9-0.2,1.3-0.2
		s0.9,0.1,1.3,0.2c0.4,0.2,0.8,0.4,1.1,0.7c0.3,0.3,0.6,0.7,0.8,1.1c0.2,0.4,0.3,0.9,0.3,1.5v9.7c0,0.6-0.1,1.1-0.3,1.5
		c-0.2,0.4-0.5,0.8-0.8,1.1c-0.3,0.3-0.7,0.5-1.1,0.7c-0.4,0.2-0.9,0.2-1.3,0.2s-0.9-0.1-1.3-0.2s-0.8-0.4-1.1-0.7
		c-0.3-0.3-0.6-0.7-0.8-1.1c-0.2-0.4-0.3-0.9-0.3-1.5V162.3z M242.5,172.1c0,0.3,0.1,0.6,0.3,0.9c0.2,0.2,0.5,0.3,0.8,0.3
		s0.6-0.1,0.8-0.3c0.2-0.2,0.3-0.5,0.3-0.9v-9.7c0-0.3-0.1-0.6-0.3-0.9c-0.2-0.2-0.5-0.3-0.8-0.3s-0.6,0.1-0.8,0.3
		c-0.2,0.2-0.3,0.5-0.3,0.9V172.1z"/>
</g>
<g class="st0">
	<path class="st2" d="M16.8,130.9l-0.6-0.6h-1l-0.6,0.6v5.9l0.6,0.6h2.6l1.7,1.7v8.4l-1.7,1.7h-4.2l-1.7-1.7v-4.4h2.7v3.3l0.6,0.6
		h1.1l0.6-0.6v-6.2l-0.6-0.6h-2.6l-1.7-1.7v-8.2l1.7-1.7h4.1l1.7,1.7v4.4h-2.7V130.9z"/>
	<path class="st2" d="M21.8,128.1h6.5v2.3h-3.9v7h3.4v2.3h-3.4v7.2h3.9v2.3h-6.6V128.1z"/>
	<path class="st2" d="M38.4,129.8v17.7l-1.7,1.7h-6.2v-21h6.2L38.4,129.8z M35.7,146.3v-15.3l-0.6-0.6h-2v16.5h2L35.7,146.3z"/>
	<path class="st2" d="M40.8,128.1h6.5v2.3h-3.9v7h3.4v2.3h-3.4v7.2h3.9v2.3h-6.6V128.1z"/>
	<path class="st2" d="M49.5,141.1v-3.6h2.8v3.6H49.5z M49.5,149.1v-3.6h2.8v3.6H49.5z"/>
	<path class="st2" d="M59.9,149.1v-21h2.7v18.7h3.5v2.3H59.9z"/>
	<path class="st2" d="M70.5,143.7l-0.5,5.4h-2.7l2.5-21h3.8l2.6,21h-2.8l-0.5-5.4H70.5z M71.7,130.8l-1,10.6h2L71.7,130.8z"/>
	<path class="st2" d="M87.3,149.1l-2.1-16.5v16.5h-2.4v-21h3.8l2,16.9l2-16.9h3.9v21H92v-16.5L90,149.1H87.3z"/>
	<path class="st2" d="M99.6,143.7l-0.5,5.4h-2.7l2.5-21h3.8l2.6,21h-2.8l-0.5-5.4H99.6z M100.8,130.8l-1,10.6h2L100.8,130.8z"/>
	<path class="st2" d="M107.1,128.1h2.9l3,14.5v-14.5h2.4v21h-2.9l-3-14.3v14.3h-2.4V128.1z"/>
	<path class="st2" d="M122.5,130.9l-0.6-0.6h-1l-0.6,0.6v5.9l0.6,0.6h2.6l1.7,1.7v8.4l-1.7,1.7h-4.2l-1.7-1.7v-4.4h2.7v3.3l0.6,0.6
		h1.1l0.6-0.6v-6.2l-0.6-0.6h-2.6l-1.7-1.7v-8.2l1.7-1.7h4.1l1.7,1.7v4.4h-2.7V130.9z"/>
	<path class="st2" d="M127.5,128.1h2.7v21h-2.7V128.1z"/>
	<path class="st2" d="M140.5,147.4l-1.7,1.7h-4.6l-1.7-1.7v-17.7l1.7-1.7h4.6l1.7,1.7V147.4z M136.8,126.6H135l2-3.9h3.1
		L136.8,126.6z M135.8,130.4l-0.6,0.6v15.3l0.6,0.6h1.5l0.6-0.6v-15.3l-0.6-0.6H135.8z"/>
	<path class="st2" d="M142.9,128.1h2.9l3,14.5v-14.5h2.4v21h-2.9l-3-14.3v14.3h-2.4V128.1z"/>
	<path class="st2" d="M163.3,149.1l-2.1-16.5v16.5h-2.4v-21h3.8l2,16.9l2-16.9h3.9v21H168v-16.5l-2.1,16.5H163.3z"/>
	<path class="st2" d="M175.6,143.7l-0.5,5.4h-2.7l2.5-21h3.8l2.6,21h-2.8l-0.5-5.4H175.6z M176.8,130.8l-1,10.6h2L176.8,130.8z"/>
	<path class="st2" d="M183.1,128.1h6.1l1.7,1.7v8.7l-1.5,1.5l1.7,9.1h-2.6l-1.6-8.9h-1.1v8.9h-2.7V128.1z M188.3,137.4v-6.6
		l-0.6-0.6h-1.9v7.7h1.9L188.3,137.4z"/>
	<path class="st2" d="M193.5,128.1h6.1l1.7,1.7v8.7l-1.5,1.5l1.7,9.1h-2.6l-1.6-8.9h-1.1v8.9h-2.7V128.1z M198.6,137.4v-6.6
		l-0.6-0.6h-1.9v7.7h1.9L198.6,137.4z"/>
	<path class="st2" d="M203.8,128.1h2.7v21h-2.7V128.1z"/>
	<path class="st2" d="M216.8,147.4l-1.7,1.7h-4.6l-1.7-1.7v-17.7l1.7-1.7h4.6l1.7,1.7V147.4z M212.1,130.4l-0.6,0.6v15.3l0.6,0.6
		h1.5l0.6-0.6v-15.3l-0.6-0.6H212.1z"/>
	<path class="st2" d="M223.7,130.3v18.8H221v-18.8h-2.5v-2.2h7.7v2.2H223.7z"/>
	<path class="st2" d="M232.5,130.3v18.8h-2.7v-18.8h-2.5v-2.2h7.7v2.2H232.5z"/>
	<path class="st2" d="M241.7,128.1h6.1l1.7,1.7v8.7l-1.5,1.5l1.7,9.1h-2.6l-1.6-8.9h-1.1v8.9h-2.7V128.1z M246.9,137.4v-6.6
		l-0.6-0.6h-1.9v7.7h1.9L246.9,137.4z"/>
	<path class="st2" d="M252.1,128.1h6.5v2.3h-3.9v7h3.4v2.3h-3.4v7.2h3.9v2.3h-6.6V128.1z"/>
	<path class="st2" d="M267.2,130.4h-3.8v7.2h3.4v2.3h-3.4v9.2h-2.7v-21h6.5V130.4z"/>
	<path class="st2" d="M277,147.4l-1.7,1.7h-4.6l-1.7-1.7v-17.7l1.7-1.7h4.6l1.7,1.7V147.4z M272.3,130.4l-0.6,0.6v15.3l0.6,0.6h1.5
		l0.6-0.6v-15.3l-0.6-0.6H272.3z"/>
	<path class="st2" d="M279.5,128.1h6.1l1.7,1.7v8.7l-1.5,1.5l1.7,9.1h-2.6l-1.6-8.9h-1.1v8.9h-2.7V128.1z M284.6,137.4v-6.6
		l-0.6-0.6h-1.9v7.7h1.9L284.6,137.4z"/>
	<path class="st2" d="M294.3,149.1l-2.1-16.5v16.5h-2.4v-21h3.8l2,16.9l2-16.9h3.9v21H299v-16.5l-2.1,16.5H294.3z"/>
	<path class="st2" d="M306.5,143.7l-0.5,5.4h-2.7l2.5-21h3.8l2.6,21h-2.8l-0.5-5.4H306.5z M307.7,130.8l-1,10.6h2L307.7,130.8z"/>
</g>
<g>
	<g>
		
			<linearGradient id="SVGID_1_" gradientUnits="userSpaceOnUse" x1="52.11" y1="29.0377" x2="279.2227" y2="130.022" gradientTransform="matrix(1 0 0 1 0 -2)">
			<stop  offset="0" style="stop-color:#C8A84F"/>
			<stop  offset="6.043150e-02" style="stop-color:#CEB25B"/>
			<stop  offset="0.2319" style="stop-color:#DFCB78"/>
			<stop  offset="0.3845" style="stop-color:#E8DB8B"/>
			<stop  offset="0.502" style="stop-color:#ECE192"/>
			<stop  offset="0.6209" style="stop-color:#E3D78B"/>
			<stop  offset="0.8015" style="stop-color:#CABE79"/>
			<stop  offset="1" style="stop-color:#A89B62"/>
		</linearGradient>
		<path class="st3" d="M64.2,72.5h-8l-6.8,26.2v4.9H59v12h5.2v-12H67V99h-2.8V72.5z M59,99h-5.2l5.2-21V99z M78.2,72.5v43.2h12.4
			l3.3-3.4V75.9l-3.3-3.4H78.2z M88.6,109.9l-1.1,1.1h-4V77.1h4l1.1,1.1V109.9z M105,24.6v33.9h5V15.3h-7.8l-3.9,34.9l-3.9-34.9
			h-7.6v43.2h4.8V24.6l4.1,33.9h5.2L105,24.6z M102.7,96.1h6.8v-4.7h-6.8V77.1h7.8v-4.7h-13v43.2h13.2V111h-7.9V96.1z M187.4,58.5
			l3.3-3.4V18.7l-3.3-3.4h-9.2l-3.3,3.4v36.4l3.3,3.4H187.4z M180.2,21.1l1.1-1.1h3l1.1,1.1v31.6l-1.1,1.1h-3l-1.1-1.1V21.1z
			 M143.8,40.1h2.3l3.2,18.4h5.1l-3.3-18.8l2.9-3v-18l-3.3-3.4h-12.2v43.2h5.3V40.1z M143.8,19.9h3.9l1.1,1.1v13.5l-1.1,1.1h-3.9
			V19.9z M206.5,53.8h-7V15.3h-5.3v43.2h12.3V53.8z M38,77.1h3.7v38.5H47V72.5h-9V77.1z M136.1,4.2h-6.2l-3.9,8h3.6L136.1,4.2z
			 M135.7,53.8h-7.9V39h6.8v-4.7h-6.8V20h7.8v-4.7h-13v43.2h13.2V53.8z M160.7,15.3l-3.3,3.4v36.4l3.3,3.4h8.1l3.3-3.4v-9.8h-5.3
			v7.4l-1.1,1.1h-2l-1.1-1.1V21l1.1-1.1h2l1.1,1.1v7.4h5.3v-9.7l-3.3-3.4H160.7z M238.9,37.7l-3.3-3.4h-5.2l-1.1-1.1V21l1.1-1.1h1.9
			l1.1,1.1v6.8h5.3v-9.1l-3.3-3.4h-8.1l-3.3,3.4v16.8l3.3,3.4h5.2l1.1,1.1v12.7l-1.1,1.1h-2.2l-1.1-1.1v-6.8H224v9l3.3,3.4h8.4
			l3.3-3.4V37.7z M239.2,72.5l-3.3,3.4v36.4l3.3,3.4h8.6l3.3-3.4V75.9l-3.3-3.4H239.2z M245.9,109.9l-1.1,1.1h-2.5l-1.1-1.1V78.3
			l1.1-1.1h2.5l1.1,1.1V109.9z M113.6,58.5h5.3V15.3h-5.3V58.5z M257.5,72.5l-3.3,3.4v7.6h5.3v-5.2l1.1-1.1h1.7l1.1,1.1v12.4
			l-1.1,1.1h-4.8l-3.3,3.4v20.5h14.3V111h-9V97.7l1.1-1.1h4.8l3.3-3.4V75.9l-3.3-3.4H257.5z M286.3,75.9l-3.3-3.4h-8.7l-3.3,3.4v8.5
			h5.3v-6.2l1.1-1.1h2.5l1.1,1.1v12l-1.1,1.1h-4.7v4.8h4.7l1.1,1.1V110l-1.1,1.1h-2.5l-1.1-1.1v-6.2H271v8.5l3.3,3.4h8.6l3.3-3.4
			V97.2l-3.3-3.5l3.3-3.4V75.9z M222,53.8h-7.9V39h6.8v-4.7h-6.8V20h7.8v-4.7h-13v43.2H222V53.8z M222.1,72.5l-3.3,3.4v7.6h5.3v-5.2
			l1.1-1.1h1.7l1.1,1.1v12.4l-1.1,1.1h-4.8l-3.3,3.4v20.5h14.3V111h-9V97.7l1.1-1.1h4.8l3.3-3.4V75.9l-3.3-3.4H222.1z M144.6,109.9
			l-1.1,1.1h-2.7l-1.1-1.1V72.5h-5.3v39.8l3.3,3.4h8.9l3.3-3.4V72.5h-5.3V109.9z M125.7,109.9l-1.1,1.1h-4.3v4.7h7.4l3.3-3.4V72.5
			h-5.3V109.9z M165.3,102.4l-6.1-29.9h-5.7v43.2h4.8V86.2l6.1,29.5h5.7V72.5h-4.8V102.4z M185.7,72.5l-3.3,3.4v36.4l3.3,3.4h9.2
			l3.3-3.4V75.9l-3.3-3.4H185.7z M192.9,109.9l-1.1,1.1h-3l-1.1-1.1V78.3l1.1-1.1h3l1.1,1.1V109.9z M201.5,115.7h2.5l-2.5,6.4h1.8
			l3.7-6.9v-5.7h-5.5V115.7z M173.7,115.7h5.3V72.5h-5.3V115.7z"/>
	</g>
</g>
</svg>
